<svg width="86" height="80" viewBox="0 0 86 80" fill="none" xmlns="http://www.w3.org/2000/svg">
<g clip-path="url(#clip0)">
<path d="M42.898 74.8917C63.6175 74.8917 80.4136 59.3428 80.4136 40.1623C80.4136 20.9819 63.6175 5.43301 42.898 5.43301C22.1785 5.43301 5.38208 20.9819 5.38208 40.1623C5.38208 59.3428 22.1785 74.8917 42.898 74.8917Z" fill="#FF4081"/>
<path fill-rule="evenodd" clip-rule="evenodd" d="M42.8979 79.8529C19.3164 79.8529 0.0225372 61.9922 0.0225372 40.1623C0.0225372 18.3325 19.3164 0.471756 42.8979 0.471756C66.4793 0.471756 85.7731 18.3325 85.7731 40.1623C85.7731 61.9922 66.4793 79.8529 42.8979 79.8529ZM79.0738 45.62C77.7341 45.1238 67.819 42.3952 56.2965 44.1315C61.1197 56.2867 62.9954 66.2093 63.5314 68.1939C71.5707 62.9845 77.4659 55.0465 79.0738 45.62ZM57.1002 71.4187C56.5643 68.4421 54.4204 58.0233 49.329 45.62H49.0612C28.4274 52.3178 20.9242 65.4652 20.3883 66.7055C26.5516 71.1708 34.3228 73.8994 42.8979 73.8994C47.9893 74.1477 52.8126 73.1554 57.1002 71.4187ZM15.5648 62.7366C16.3687 61.4961 26.5516 46.1161 45.3095 40.4106C45.8455 40.1623 46.3814 40.1623 46.6492 39.9144C45.8455 37.9298 44.7736 35.9452 43.7016 34.2089C25.4797 39.17 7.52569 39.17 6.18587 38.9221C6.18587 39.17 6.18587 39.6662 6.18587 39.9144C6.18587 48.8448 9.93743 56.7828 15.5648 62.7366ZM6.98977 33.2165C8.59761 33.2165 23.6039 33.2165 40.7541 28.9994C34.5907 19.0767 28.1594 10.6425 27.0875 9.40217C17.1726 13.8673 9.40151 22.7978 6.98977 33.2165ZM34.3228 7.16956C35.3946 8.4099 42.0938 16.8442 47.9893 27.0149C61.1197 22.5497 66.4793 15.6038 67.2831 14.8596C60.8519 9.65021 52.2766 6.42534 42.8979 6.42534C39.9503 6.42534 37.0024 6.67342 34.3228 7.16956ZM71.3026 18.8287C70.4988 19.821 64.3355 27.0149 50.9369 32.2243C51.7407 33.7127 52.5448 35.4491 53.3485 37.1858C53.6167 37.6816 53.8845 38.426 54.1526 38.9221C66.2112 37.4337 78.5378 39.6662 79.6097 39.9144C79.3419 31.9762 76.394 24.5342 71.3026 18.8287Z" fill="#E51067"/>
</g>
<defs>
<clipPath id="clip0">
<rect width="86" height="79.6122" fill="white" transform="translate(0 0.387772)"/>
</clipPath>
</defs>
</svg>
