<svg width="305" height="62" viewBox="0 0 305 62" fill="none" xmlns="http://www.w3.org/2000/svg">
<path d="M21.28 30.3214C23.8 30.3214 25.72 29.7514 27.04 28.6114C28.42 27.4114 29.11 25.6114 29.11 23.2114C29.11 20.9314 28.39 19.1914 26.95 17.9914C25.57 16.7314 23.53 16.1014 20.83 16.1014C19.87 16.1014 19.06 16.1314 18.4 16.1914C17.8 16.1914 17.17 16.2514 16.51 16.3714V30.3214H21.28ZM16.6 59.2114C15.94 59.3914 14.89 59.5714 13.45 59.7514C12.07 59.9314 10.69 60.0214 9.31 60.0214C7.93 60.0214 6.7 59.9014 5.62 59.6614C4.6 59.4814 3.73 59.1214 3.01 58.5814C2.29 58.0414 1.75 57.2914 1.39 56.3314C1.03 55.3714 0.85 54.1114 0.85 52.5514V10.1614C0.85 8.90144 1.18 7.94144 1.84 7.28144C2.56 6.56144 3.52 5.99144 4.72 5.57144C6.76 4.85144 9.07 4.34144 11.65 4.04144C14.29 3.68144 16.93 3.50144 19.57 3.50144C27.85 3.50144 34.18 5.27144 38.56 8.81144C42.94 12.3514 45.13 17.1514 45.13 23.2114C45.13 26.1514 44.65 28.8214 43.69 31.2214C42.79 33.5614 41.41 35.6014 39.55 37.3414C37.75 39.0214 35.44 40.3414 32.62 41.3014C29.86 42.2014 26.65 42.6514 22.99 42.6514H16.6V59.2114ZM73.7866 61.0114C70.2466 61.0114 66.9466 60.5314 63.8866 59.5714C60.8866 58.5514 58.2466 57.0514 55.9666 55.0714C53.7466 53.0914 51.9766 50.6014 50.6566 47.6014C49.3966 44.6014 48.7666 41.0914 48.7666 37.0714C48.7666 33.1114 49.3966 29.7214 50.6566 26.9014C51.9766 24.0214 53.6866 21.6814 55.7866 19.8814C57.8866 18.0214 60.2866 16.6714 62.9866 15.8314C65.6866 14.9314 68.4466 14.4814 71.2666 14.4814C74.4466 14.4814 77.3266 14.9614 79.9066 15.9214C82.5466 16.8814 84.7966 18.2014 86.6566 19.8814C88.5766 21.5614 90.0466 23.5714 91.0666 25.9114C92.1466 28.2514 92.6866 30.8014 92.6866 33.5614C92.6866 35.6014 92.1166 37.1614 90.9766 38.2414C89.8366 39.3214 88.2466 40.0114 86.2066 40.3114L63.9766 43.6414C64.6366 45.6214 65.9866 47.1214 68.0266 48.1414C70.0666 49.1014 72.4066 49.5814 75.0466 49.5814C77.5066 49.5814 79.8166 49.2814 81.9766 48.6814C84.1966 48.0214 85.9966 47.2714 87.3766 46.4314C88.3366 47.0314 89.1466 47.8714 89.8066 48.9514C90.4666 50.0314 90.7966 51.1714 90.7966 52.3714C90.7966 55.0714 89.5366 57.0814 87.0166 58.4014C85.0966 59.4214 82.9366 60.1114 80.5366 60.4714C78.1366 60.8314 75.8866 61.0114 73.7866 61.0114ZM71.2666 25.6414C69.8266 25.6414 68.5666 25.8814 67.4866 26.3614C66.4666 26.8414 65.6266 27.4714 64.9666 28.2514C64.3066 28.9714 63.7966 29.8114 63.4366 30.7714C63.1366 31.6714 62.9566 32.6014 62.8966 33.5614L78.2866 31.0414C78.1066 29.8414 77.4466 28.6414 76.3066 27.4414C75.1666 26.2414 73.4866 25.6414 71.2666 25.6414ZM115.351 59.4814C114.751 59.6614 113.791 59.8414 112.471 60.0214C111.211 60.2014 109.891 60.2914 108.511 60.2914C107.191 60.2914 105.991 60.2014 104.911 60.0214C103.891 59.8414 103.021 59.4814 102.301 58.9414C101.581 58.4014 101.011 57.6814 100.591 56.7814C100.231 55.8214 100.051 54.5914 100.051 53.0914V26.0914C100.051 24.7114 100.291 23.5414 100.771 22.5814C101.311 21.5614 102.061 20.6614 103.021 19.8814C103.981 19.1014 105.151 18.4114 106.531 17.8114C107.971 17.1514 109.501 16.5814 111.121 16.1014C112.741 15.6214 114.421 15.2614 116.161 15.0214C117.901 14.7214 119.641 14.5714 121.381 14.5714C124.261 14.5714 126.541 15.1414 128.221 16.2814C129.901 17.3614 130.741 19.1614 130.741 21.6814C130.741 22.5214 130.621 23.3614 130.381 24.2014C130.141 24.9814 129.841 25.7014 129.481 26.3614C128.221 26.3614 126.931 26.4214 125.611 26.5414C124.291 26.6614 123.001 26.8414 121.741 27.0814C120.481 27.3214 119.281 27.5914 118.141 27.8914C117.061 28.1314 116.131 28.4314 115.351 28.7914V59.4814ZM173.953 46.5214C173.953 51.0814 172.243 54.6514 168.823 57.2314C165.403 59.8114 160.363 61.1014 153.703 61.1014C151.183 61.1014 148.843 60.9214 146.683 60.5614C144.523 60.2014 142.663 59.6614 141.103 58.9414C139.603 58.1614 138.403 57.2014 137.503 56.0614C136.663 54.9214 136.243 53.5714 136.243 52.0114C136.243 50.5714 136.543 49.3714 137.143 48.4114C137.743 47.3914 138.463 46.5514 139.303 45.8914C141.043 46.8514 143.023 47.7214 145.243 48.5014C147.523 49.2214 150.133 49.5814 153.073 49.5814C154.933 49.5814 156.343 49.3114 157.303 48.7714C158.323 48.2314 158.833 47.5114 158.833 46.6114C158.833 45.7714 158.473 45.1114 157.753 44.6314C157.033 44.1514 155.833 43.7614 154.153 43.4614L151.453 42.9214C146.233 41.9014 142.333 40.3114 139.753 38.1514C137.233 35.9314 135.973 32.7814 135.973 28.7014C135.973 26.4814 136.453 24.4714 137.413 22.6714C138.373 20.8714 139.723 19.3714 141.463 18.1714C143.203 16.9714 145.273 16.0414 147.673 15.3814C150.133 14.7214 152.833 14.3914 155.773 14.3914C157.993 14.3914 160.063 14.5714 161.983 14.9314C163.963 15.2314 165.673 15.7114 167.113 16.3714C168.553 17.0314 169.693 17.9014 170.533 18.9814C171.373 20.0014 171.793 21.2314 171.793 22.6714C171.793 24.0514 171.523 25.2514 170.983 26.2714C170.503 27.2314 169.873 28.0414 169.093 28.7014C168.613 28.4014 167.893 28.1014 166.933 27.8014C165.973 27.4414 164.923 27.1414 163.783 26.9014C162.643 26.6014 161.473 26.3614 160.273 26.1814C159.133 26.0014 158.083 25.9114 157.123 25.9114C155.143 25.9114 153.613 26.1514 152.533 26.6314C151.453 27.0514 150.913 27.7414 150.913 28.7014C150.913 29.3614 151.213 29.9014 151.813 30.3214C152.413 30.7414 153.553 31.1314 155.233 31.4914L158.023 32.1214C163.783 33.4414 167.863 35.2714 170.263 37.6114C172.723 39.8914 173.953 42.8614 173.953 46.5214ZM227.059 37.7014C227.059 41.4214 226.489 44.7514 225.349 47.6914C224.209 50.5714 222.589 53.0014 220.489 54.9814C218.449 56.9614 215.989 58.4614 213.109 59.4814C210.229 60.5014 207.019 61.0114 203.479 61.0114C199.939 61.0114 196.729 60.4714 193.849 59.3914C190.969 58.3114 188.479 56.7814 186.379 54.8014C184.339 52.7614 182.749 50.3014 181.609 47.4214C180.469 44.5414 179.899 41.3014 179.899 37.7014C179.899 34.1614 180.469 30.9514 181.609 28.0714C182.749 25.1914 184.339 22.7614 186.379 20.7814C188.479 18.7414 190.969 17.1814 193.849 16.1014C196.729 15.0214 199.939 14.4814 203.479 14.4814C207.019 14.4814 210.229 15.0514 213.109 16.1914C215.989 17.2714 218.449 18.8314 220.489 20.8714C222.589 22.8514 224.209 25.2814 225.349 28.1614C226.489 31.0414 227.059 34.2214 227.059 37.7014ZM195.559 37.7014C195.559 41.3614 196.249 44.1814 197.629 46.1614C199.069 48.0814 201.049 49.0414 203.569 49.0414C206.089 49.0414 208.009 48.0514 209.329 46.0714C210.709 44.0914 211.399 41.3014 211.399 37.7014C211.399 34.1014 210.709 31.3414 209.329 29.4214C207.949 27.4414 205.999 26.4514 203.479 26.4514C200.959 26.4514 199.009 27.4414 197.629 29.4214C196.249 31.3414 195.559 34.1014 195.559 37.7014ZM262.244 31.8514C262.244 29.9914 261.704 28.6414 260.624 27.8014C259.604 26.9014 258.194 26.4514 256.394 26.4514C255.194 26.4514 253.994 26.6014 252.794 26.9014C251.654 27.2014 250.664 27.6514 249.824 28.2514V59.4814C249.224 59.6614 248.264 59.8414 246.944 60.0214C245.684 60.2014 244.364 60.2914 242.984 60.2914C241.664 60.2914 240.464 60.2014 239.384 60.0214C238.364 59.8414 237.494 59.4814 236.774 58.9414C236.054 58.4014 235.484 57.6814 235.064 56.7814C234.704 55.8214 234.524 54.5914 234.524 53.0914V26.0914C234.524 24.4714 234.854 23.1514 235.514 22.1314C236.234 21.1114 237.194 20.1814 238.394 19.3414C240.434 17.9014 242.984 16.7314 246.044 15.8314C249.164 14.9314 252.614 14.4814 256.394 14.4814C263.174 14.4814 268.394 15.9814 272.054 18.9814C275.714 21.9214 277.544 26.0314 277.544 31.3114V59.4814C276.944 59.6614 275.984 59.8414 274.664 60.0214C273.404 60.2014 272.084 60.2914 270.704 60.2914C269.384 60.2914 268.184 60.2014 267.104 60.0214C266.084 59.8414 265.214 59.4814 264.494 58.9414C263.774 58.4014 263.204 57.6814 262.784 56.7814C262.424 55.8214 262.244 54.5914 262.244 53.0914V31.8514ZM303.644 7.37144C303.644 8.75144 303.614 10.7614 303.554 13.4014C303.494 15.9814 303.374 18.8014 303.194 21.8614C303.014 24.8614 302.774 27.8914 302.474 30.9514C302.174 33.9514 301.814 36.5614 301.394 38.7814C301.154 38.9614 300.794 39.1414 300.314 39.3214C299.834 39.5014 299.324 39.6514 298.784 39.7714C298.244 39.8914 297.704 39.9814 297.164 40.0414C296.624 40.1014 296.144 40.1314 295.724 40.1314C293.984 40.1314 292.514 39.8614 291.314 39.3214C290.174 38.7814 289.454 37.7314 289.154 36.1714C288.854 34.7914 288.584 32.6914 288.344 29.8714C288.164 27.0514 287.984 23.9914 287.804 20.6914C287.624 17.3914 287.474 14.1214 287.354 10.8814C287.294 7.64144 287.264 4.88144 287.264 2.60144C288.464 1.94144 289.814 1.43144 291.314 1.07144C292.874 0.65144 294.404 0.441441 295.904 0.441441C298.364 0.441441 300.254 1.01144 301.574 2.15144C302.954 3.29144 303.644 5.03144 303.644 7.37144ZM287.084 52.7314C287.084 50.2714 287.834 48.2614 289.334 46.7014C290.894 45.0814 293.024 44.2714 295.724 44.2714C298.424 44.2714 300.524 45.0814 302.024 46.7014C303.584 48.2614 304.364 50.2714 304.364 52.7314C304.364 55.1914 303.584 57.2314 302.024 58.8514C300.524 60.4114 298.424 61.1914 295.724 61.1914C293.024 61.1914 290.894 60.4114 289.334 58.8514C287.834 57.2314 287.084 55.1914 287.084 52.7314Z" fill="#042A4C"/>
</svg>
