<svg width="1102" height="1011" viewBox="0 0 1102 1011" fill="none" xmlns="http://www.w3.org/2000/svg">
<g clip-path="url(#clip0)">
<path d="M614.28 876.794C614.28 876.794 629.776 910.227 629.965 943.461L756.44 971.429C756.44 971.429 756.216 948.559 735.965 929.934C715.712 911.309 704.052 895.621 699.999 871.115L614.28 876.794Z" fill="#FF2633"/>
<path d="M689.887 913.51L711.994 911.034" stroke="white" stroke-width="1.34399" stroke-miterlimit="10" stroke-linecap="round"/>
<path d="M752.305 791.801C752.305 791.801 791.311 823.984 815.399 821.045L872.388 722.902C872.388 722.902 856.084 708.342 826.71 731.414C826.71 731.414 819.756 738.126 805.829 737.814C799.228 737.673 791.615 735.296 782.797 729.199L752.305 791.801Z" fill="#FF2633"/>
<path d="M812.835 760.329L813.366 739.696" stroke="white" stroke-width="1.34399" stroke-miterlimit="10" stroke-linecap="round"/>
<path d="M773.494 580.008L678.393 576.333C671.86 576.081 666.13 580.814 665.595 586.905L657.794 675.576C657.258 681.666 662.12 686.808 668.651 687.062L763.753 690.737C770.286 690.989 776.015 686.256 776.551 680.165L784.351 591.494C784.887 585.404 780.026 580.262 773.494 580.008Z" stroke="#DADEEB" stroke-width="1.34399" stroke-miterlimit="10"/>
<path d="M642.118 508.658L572.896 546.018C572.34 546.317 571.725 546.498 571.095 546.552C570.466 546.606 569.836 546.529 569.252 546.329C568.669 546.127 568.147 545.808 567.722 545.391C567.297 544.973 566.978 544.47 566.793 543.917L560.758 494.559C560.547 492.835 560.907 491.071 561.792 489.501C562.677 487.933 564.043 486.631 565.71 485.771L636.556 449.157C637.092 448.859 637.695 448.691 638.309 448.667C638.923 448.642 639.528 448.764 640.064 449.02C640.601 449.275 641.054 449.657 641.38 450.128C641.705 450.599 641.893 451.145 641.924 451.712L644.888 503.984C644.941 504.909 644.709 505.841 644.218 506.669C643.727 507.496 642.998 508.187 642.118 508.658Z" fill="#BEDDFA"/>
<path d="M612.34 390.794C629.168 384.574 637.937 367.035 631.925 351.62C625.912 336.207 607.394 328.754 590.563 334.975C573.734 341.194 564.966 358.733 570.979 374.147C576.99 389.561 595.509 397.014 612.34 390.794Z" fill="#FF2633"/>
<path d="M612.534 364.205L597.988 376.625C597.692 376.884 597.33 377.065 596.937 377.148C596.547 377.231 596.142 377.214 595.77 377.098C595.397 376.98 595.071 376.77 594.825 376.487C594.581 376.205 594.427 375.863 594.38 375.497L591.609 355.688C591.547 355.323 591.595 354.945 591.749 354.597C591.902 354.247 592.154 353.941 592.478 353.71C592.802 353.48 593.185 353.334 593.582 353.291C593.982 353.247 594.382 353.305 594.738 353.461L612.059 360.858C612.388 360.99 612.673 361.197 612.886 361.462C613.1 361.727 613.239 362.04 613.285 362.373C613.333 362.706 613.289 363.049 613.158 363.369C613.026 363.688 612.811 363.976 612.534 364.205Z" fill="white"/>
<path d="M234.186 445.273C219.323 477.631 209.181 511.542 204.04 546.074C201.607 561.641 200.459 577.311 200.609 592.944C200.729 607.83 202.882 622.564 207.019 636.794C211.097 650.316 217.473 663.422 226.775 674.401C235.363 684.55 246.189 692.853 258.573 698.786C270.695 704.715 284.333 707.693 298.263 707.453C305.069 707.263 311.847 706.139 318.38 704.117C321.134 703.268 323.865 702.365 326.644 701.568C333.143 699.803 339.554 697.738 345.854 695.378C353.723 692.435 361.142 688.471 367.885 683.611C375.469 678.06 381.715 671.075 386.182 663.151C391.816 653.022 394.27 641.687 394.68 630.535C395.113 619.141 393.991 605.88 383.112 599.119C372.906 592.8 358.836 593.976 348.039 599.432C333.415 606.839 324.651 620.562 319.78 634.826C315.507 646.82 313.825 659.391 314.838 671.799C315.829 682.911 318.958 694.866 327.059 703.206C331.616 707.923 337.995 710.816 344.115 713.492C353.719 717.658 363.844 720.779 374.295 722.798C389.148 725.685 404.522 726.183 419.762 724.27C428.493 723.124 437.119 721.212 445.525 718.556C447.034 718.088 444.608 716.485 444.608 716.485C428.464 721.566 411.547 723.77 394.77 722.979C374.509 721.926 354.928 716.719 337.42 707.728C334.231 706.15 331.351 704.106 328.884 701.668C325.204 697.649 322.431 692.97 320.714 687.894C316.832 677.171 316.123 665.202 317.569 653.821C318.436 647.348 320.003 640.945 322.25 634.714C324.741 627.226 328.594 620.144 333.634 613.784C342.372 603.174 356.329 595.562 370.698 597.296C375.482 597.789 379.966 599.532 383.638 602.325C387.874 605.699 390.264 610.629 391.409 615.706C392.793 622.088 392.594 628.913 391.961 635.441C391.474 641.003 390.333 646.522 388.555 651.899C385.624 660.729 380.535 668.88 373.696 675.698C367.744 681.429 360.801 686.187 353.18 689.758C346.581 692.847 339.732 695.416 332.708 697.437C329.912 698.273 327.104 699.045 324.312 699.852C321.042 700.795 317.833 701.978 314.544 702.838C301.445 706.1 287.776 705.941 275.066 702.381C262.028 698.762 250.091 692.548 240.065 684.158C229.587 675.341 221.274 664.526 215.651 652.394C209.612 639.368 205.768 625.486 204.249 611.22C202.689 596.782 202.587 582.186 203.946 567.621C205.379 551.083 207.985 534.606 211.747 518.301C215.576 501.656 220.585 485.222 226.74 469.11C229.706 461.353 232.935 453.681 236.426 446.095C236.524 445.821 236.508 445.528 236.383 445.273C236.26 445.017 236.034 444.818 235.754 444.715C235.472 444.61 235.155 444.611 234.865 444.714C234.576 444.818 234.332 445.017 234.186 445.273Z" fill="#DADEEB"/>
<path d="M468.504 358.292L487.998 342.586" stroke="#DADEEB" stroke-width="1.34399" stroke-miterlimit="10" stroke-linecap="round"/>
<path d="M469.866 368.109L494.518 361.909" stroke="#DADEEB" stroke-width="1.34399" stroke-miterlimit="10" stroke-linecap="round"/>
<path d="M788.026 723.572C718.085 668.062 645.035 640.357 608.407 626.491C602.77 624.356 595.84 621.725 593.388 620.619C575.725 613.669 565.771 592.073 565.771 592.073L508.174 634.365C508.144 634.305 508.12 634.241 508.1 634.177C508.13 634.253 508.151 634.309 508.122 634.384L507.666 634.712L413.079 646.121C413.76 653.856 422.16 722.401 486.604 753.244C500.389 759.851 526.897 779.921 555.027 809.871C582.99 839.606 599.267 859.038 608.449 882.577L718.96 875.465C701.339 830.292 648.581 771.846 628.025 749.952C614.896 735.902 600.902 722.579 586.111 710.044C626.505 725.924 690.362 754.96 746.782 811.827C746.809 811.774 794.141 728.432 788.026 723.572Z" fill="#0D0F44"/>
<path d="M606.839 861.944L688.952 857.481" stroke="#E6E6E6" stroke-width="1.34399" stroke-miterlimit="10" stroke-linecap="round"/>
<path d="M773.704 712.605C773.704 712.605 759.944 754.902 744.956 777.967" stroke="#E6E6E6" stroke-width="1.34399" stroke-miterlimit="10" stroke-linecap="round"/>
<path d="M581.891 706.453C581.891 706.453 559.456 688.164 546.255 681.021L549.911 665.55" stroke="#E6E6E6" stroke-width="1.34399" stroke-miterlimit="10" stroke-linecap="round"/>
<path d="M327.825 338.216L229.945 394.138C225.468 396.693 220.212 397.686 215.153 396.933C210.093 396.178 205.574 393.729 202.437 390.039L151.735 330.294C150.066 328.337 148.883 326.053 148.265 323.595C147.648 321.137 147.611 318.563 148.157 316.047C148.703 313.531 149.818 311.132 151.429 309.011C153.039 306.89 155.107 305.097 157.491 303.754L285.809 231.216C288.047 229.954 290.534 229.147 293.097 228.852C295.662 228.557 298.242 228.781 300.66 229.507C303.078 230.234 305.276 231.447 307.103 233.061C308.93 234.676 310.342 236.655 311.242 238.861L339.457 307.705C341.664 313.103 341.706 319.132 339.576 324.72C337.446 330.307 333.282 335.09 327.825 338.216Z" fill="#BEDDFA"/>
<path d="M225.473 372.217L220.296 383.901C220.147 384.249 219.9 384.557 219.58 384.788C219.261 385.02 218.884 385.169 218.488 385.219C218.094 385.268 217.695 385.216 217.338 385.068C216.981 384.92 216.678 384.682 216.462 384.38L207.325 373.56C207.144 373.35 207.032 373.093 206.999 372.823C206.965 372.551 207.011 372.274 207.132 372.019C207.253 371.763 207.445 371.541 207.687 371.375C207.931 371.208 208.214 371.104 208.507 371.074L223.47 369.476C223.831 369.46 224.185 369.528 224.503 369.675C224.823 369.821 225.092 370.039 225.292 370.311C225.49 370.584 225.611 370.901 225.644 371.233C225.675 371.566 225.617 371.904 225.473 372.217Z" fill="white"/>
<path d="M278.524 341.756L268.367 347.621L235.12 366.814C234.873 366.955 234.601 367.054 234.318 367.099C234.036 367.145 233.748 367.139 233.473 367.081C233.197 367.023 232.939 366.916 232.712 366.764C232.486 366.611 232.296 366.418 232.152 366.193C231.866 365.743 231.79 365.199 231.936 364.678C232.084 364.158 232.444 363.704 232.939 363.418L266.294 344.147L276.687 338.148C277.705 339.123 278.349 340.385 278.524 341.756Z" fill="white"/>
<path d="M278.571 342.408C278.654 343.988 278.067 345.561 276.935 346.788C275.802 348.015 274.214 348.799 272.512 348.971C270.971 349.053 269.481 348.569 268.367 347.621C267.276 346.724 266.555 345.5 266.315 344.146C266.139 343.301 266.155 342.424 266.364 341.57C266.571 340.717 266.968 339.907 267.526 339.19C268.082 338.474 268.79 337.868 269.603 337.41C270.416 336.952 271.314 336.654 272.243 336.533C273.079 336.49 273.911 336.612 274.678 336.891C275.448 337.17 276.141 337.597 276.709 338.147C277.718 339.124 278.355 340.388 278.524 341.756C278.55 341.966 278.565 342.186 278.571 342.408Z" fill="white"/>
<path d="M325.853 314.419L278.524 341.756C278.355 340.388 277.718 339.124 276.709 338.147L323.674 311.023C323.921 310.862 324.198 310.746 324.487 310.688C324.779 310.628 325.077 310.623 325.366 310.675C325.654 310.726 325.926 310.831 326.164 310.986C326.401 311.14 326.601 311.34 326.75 311.571C326.899 311.804 326.993 312.063 327.028 312.334C327.064 312.606 327.039 312.884 326.955 313.151C326.872 313.418 326.731 313.667 326.541 313.886C326.351 314.104 326.117 314.286 325.853 314.419Z" fill="#CBE6FF"/>
<path d="M459.749 451.719C459.749 451.719 475.637 454.604 540.946 510.617C553.503 521.38 568.539 528.317 609.549 519.7L587.664 572.516C587.664 572.516 522.393 578.592 507.144 554.338C491.898 530.084 459.749 451.719 459.749 451.719Z" fill="#475AEA"/>
<path d="M516.872 508.296C502.075 480.279 478.085 456.086 453.188 449.616C436.723 445.34 423.403 448.411 406.027 454.833C363.284 470.631 341.79 528.495 349.908 579.748C350.572 589.236 353.309 598.423 357.953 606.75C368.672 627.998 388.689 640.029 411.389 644.284C472.005 658.545 546.946 608.848 546.946 608.848C542.075 562.473 528.653 529.388 516.872 508.296Z" fill="#475AEA"/>
<path d="M471.015 470.807C471.015 470.807 512.927 500.343 526.57 588.289" stroke="#E6E6E6" stroke-width="1.34399" stroke-miterlimit="10" stroke-linecap="round"/>
<path d="M623.819 493.968C624.531 493.748 625.282 493.684 626.013 493.781C626.742 493.879 627.43 494.135 628.021 494.531C628.612 494.925 629.091 495.446 629.417 496.053C629.743 496.659 629.91 497.335 629.902 498.025L632.355 572.12C632.427 573.425 632.113 574.739 631.445 575.918C630.777 577.097 629.783 578.095 628.57 578.808L535.759 631.534C535.417 631.726 535.057 631.887 534.685 632.016C533.963 632.245 533.206 632.337 532.457 632.285C531.709 632.232 530.986 632.037 530.334 631.712C529.681 631.386 529.113 630.936 528.664 630.391C528.214 629.847 527.893 629.217 527.72 628.543L521.156 558.505C520.909 556.086 521.421 553.624 522.634 551.415C523.845 549.206 525.705 547.344 527.988 546.056L622.872 494.447C623.167 494.253 623.486 494.093 623.819 493.968Z" fill="#FFD550"/>
<path d="M620.829 493.253C620.159 493.182 619.472 493.26 618.827 493.48C618.479 493.593 618.145 493.746 617.833 493.932L522.95 545.541C520.668 546.831 518.808 548.691 517.595 550.9C516.383 553.108 515.869 555.571 516.119 557.99L522.691 628.024C522.956 629.014 523.533 629.897 524.347 630.563C525.162 631.23 526.179 631.649 527.274 631.77L532.267 632.258C531.173 632.138 530.155 631.719 529.339 631.052C528.525 630.386 527.949 629.504 527.686 628.512L521.123 558.473C520.874 556.055 521.387 553.592 522.599 551.384C523.812 549.175 525.672 547.314 527.955 546.024L622.837 494.416C623.73 493.885 624.779 493.645 625.81 493.735L620.829 493.253Z" fill="#FFB444"/>
<path d="M460.338 598.55C460.338 598.55 476.822 579.141 490.202 568.618C503.584 558.094 516.664 550.338 520.171 550.936C522.747 551.365 527.27 558.407 518.113 572.925C518.113 572.925 531.336 572.395 542.405 568.229C552.909 564.261 561.415 561.107 567.051 568.755C567.969 570.001 568.293 572.417 568.083 575.599C567.523 581.316 566.195 586.974 564.135 592.442C562.46 597.092 560.421 601.635 558.04 606.032C551.021 618.903 540.667 630.651 527.878 633.012C510.559 636.186 493 637.65 475.499 637.385C475.499 637.385 449.385 639.928 460.338 598.55Z" fill="#F3ABAA"/>
<path d="M552.377 584.36C549.56 585.414 546.681 586.299 543.756 587.01C543.616 587.043 543.47 587.05 543.329 587.031C543.187 587.013 543.053 586.967 542.931 586.899C542.69 586.761 542.519 586.537 542.458 586.275C542.398 586.013 542.454 585.736 542.611 585.504C542.769 585.272 543.018 585.104 543.301 585.037C543.425 584.992 556.152 582.022 564.837 575.76C564.951 575.678 565.083 575.616 565.221 575.58C565.361 575.544 565.504 575.533 565.645 575.547C565.786 575.562 565.921 575.604 566.043 575.668C566.165 575.732 566.271 575.818 566.356 575.923C566.439 576.026 566.5 576.144 566.534 576.273C566.568 576.4 566.575 576.534 566.552 576.666C566.531 576.797 566.48 576.925 566.406 577.042C566.332 577.157 566.235 577.259 566.121 577.341C561.889 580.255 557.262 582.618 552.377 584.36Z" fill="#FF2633"/>
<path d="M555.599 596.902C553.026 597.854 549.696 598.967 545.462 600.19C545.323 600.23 545.18 600.244 545.037 600.232C544.895 600.221 544.76 600.184 544.635 600.122C544.512 600.06 544.403 599.976 544.316 599.873C544.229 599.771 544.165 599.653 544.128 599.526C544.055 599.27 544.096 598.994 544.239 598.76C544.384 598.523 544.621 598.346 544.899 598.267C557.115 594.736 561.693 592.059 561.745 592.041C561.992 591.895 562.288 591.846 562.565 591.902C562.843 591.958 563.081 592.114 563.228 592.338C563.373 592.561 563.417 592.832 563.347 593.092C563.279 593.352 563.103 593.58 562.858 593.728C560.536 594.98 558.106 596.043 555.599 596.902Z" fill="#FF2633"/>
<path d="M543.494 612.104L540.807 613.098C540.537 613.197 540.238 613.195 539.977 613.089C539.717 612.986 539.517 612.788 539.42 612.538C539.324 612.29 539.338 612.014 539.461 611.767C539.585 611.521 539.806 611.326 540.077 611.227C551.387 607.26 554.667 604.912 554.694 604.891C554.925 604.722 555.214 604.641 555.499 604.667C555.784 604.693 556.042 604.823 556.217 605.031C556.389 605.238 556.465 605.503 556.425 605.77C556.386 606.037 556.235 606.282 556.004 606.453C555.868 606.523 553.015 608.585 543.494 612.104Z" fill="#FF2633"/>
<path d="M537.802 624.485C536.087 625.119 534.106 625.766 531.816 626.429C531.679 626.47 531.536 626.485 531.394 626.473C531.252 626.462 531.115 626.425 530.992 626.364C530.74 626.241 530.556 626.029 530.479 625.772C530.403 625.518 530.44 625.24 530.582 625.001C530.725 624.763 530.962 624.583 531.24 624.501C543.164 621.058 546.138 617.925 546.176 617.845C546.364 617.638 546.629 617.503 546.916 617.472C547.2 617.439 547.483 617.514 547.701 617.678C547.92 617.842 548.055 618.079 548.082 618.343C548.108 618.606 548.022 618.872 547.84 619.082C547.726 619.211 545.618 621.597 537.802 624.485Z" fill="#FF2633"/>
<path d="M364.15 493.198C364.15 493.198 328.714 542.972 342.533 620.799C342.533 620.799 346.372 641.754 362.926 646.824C379.478 651.892 430.264 656.384 485.263 637.395C485.263 637.395 455.983 634.792 460.337 598.552C460.337 598.552 422.952 599.736 409.453 591.377C395.951 583.016 409.259 539.164 409.259 539.164C409.259 539.164 405.332 428.723 364.15 493.198Z" fill="#475AEA"/>
<path d="M399.147 539.335C399.147 539.335 397.043 586.681 413.834 593.225C419.971 595.625 430.923 599.22 457.682 598.601" stroke="#E6E6E6" stroke-width="1.34399" stroke-miterlimit="10" stroke-linecap="round"/>
<path d="M583.101 552.61C587.949 550.058 593.542 552.411 595.543 557.87C597.545 563.329 595.195 569.86 590.315 572.424C585.437 574.988 579.869 572.613 577.876 567.142C575.881 561.669 578.231 555.169 583.101 552.61Z" fill="white"/>
<path d="M630.106 500.54C630.106 500.54 674.659 517.999 641.795 568.62C641.795 568.62 624.383 587.538 608.309 578.096C608.309 578.096 596.869 566.416 606.19 547.972C607.505 544.464 609.795 541.311 612.821 538.842C617.52 535.338 628.197 524.594 629.842 518.923C631.487 513.252 630.106 500.54 630.106 500.54Z" fill="#F3ABAA"/>
<path d="M613.514 553.712C611.724 554.468 609.746 554.698 607.857 554.369C606.964 554.18 606.137 553.799 605.444 553.258C604.75 552.716 604.206 552.027 603.855 551.244C603.759 550.996 603.774 550.719 603.898 550.472C604.02 550.226 604.241 550.032 604.513 549.93C604.783 549.83 605.081 549.833 605.341 549.939C605.601 550.042 605.801 550.24 605.9 550.489C606.133 550.976 606.485 551.403 606.932 551.736C607.377 552.069 607.904 552.298 608.471 552.407C610.507 552.833 614.396 552.165 621.284 546.601C628.73 540.519 629.822 538.735 629.914 538.55C630.008 538.313 630.192 538.113 630.431 537.989C630.671 537.865 630.948 537.827 631.206 537.88C631.486 537.939 631.723 538.097 631.867 538.322C632.013 538.548 632.054 538.821 631.979 539.083C631.836 539.64 630.631 541.616 622.641 548.101C619.944 550.429 616.856 552.326 613.514 553.712Z" fill="#FF2633"/>
<path d="M614.194 564.445C606.02 567.465 601.718 562.429 601.692 562.363C601.521 562.156 601.447 561.89 601.488 561.623C601.528 561.358 601.681 561.114 601.91 560.945C602.142 560.777 602.431 560.697 602.714 560.723C603 560.751 603.257 560.883 603.428 561.09C603.627 561.327 608.254 566.566 617.617 560.428C624.978 555.566 626.76 553.902 626.76 553.902C626.962 553.711 627.232 553.597 627.514 553.586C627.796 553.574 628.068 553.666 628.271 553.84C628.473 554.014 628.594 554.257 628.603 554.519C628.612 554.78 628.512 555.039 628.323 555.241C628.241 555.27 626.512 556.98 618.836 562.055C617.392 563.021 615.833 563.823 614.194 564.445Z" fill="#FF2633"/>
<path d="M618.441 574.522C616.26 575.359 613.94 575.788 611.616 575.78C609.292 575.773 607.012 575.331 604.912 574.48C604.789 574.418 604.68 574.336 604.593 574.233C604.505 574.133 604.441 574.015 604.405 573.889C604.367 573.763 604.358 573.63 604.375 573.497C604.393 573.366 604.438 573.237 604.51 573.12C604.654 572.885 604.888 572.71 605.164 572.629C605.438 572.55 605.732 572.572 605.98 572.693C606.352 572.867 614.981 576.861 624.595 568.426C624.809 568.238 625.09 568.133 625.377 568.135C625.666 568.137 625.937 568.246 626.131 568.436C626.325 568.628 626.425 568.886 626.411 569.153C626.398 569.422 626.27 569.677 626.056 569.867C623.854 571.859 621.264 573.442 618.441 574.522Z" fill="#FF2633"/>
<path d="M430.918 392.62C429.821 405.059 434.863 415.378 442.184 415.658C449.506 415.938 458.271 404.939 459.151 392.483C460.158 378.195 453.46 370.885 446.139 370.605C438.817 370.324 431.98 380.183 430.918 392.62Z" fill="#FFB444"/>
<path d="M459.167 392.484C460.113 381.722 455.764 372.799 449.453 372.556C443.141 372.311 437.257 380.839 436.31 391.601C435.364 402.363 439.713 411.284 446.024 411.528C452.336 411.772 458.22 403.246 459.167 392.484Z" fill="#FFD550"/>
<path d="M430.385 424.034L387.457 421.167L385.959 457.775L385.585 466.734C403.4 471.925 422.23 464.281 431.241 457.782C436.641 453.881 436.296 450.422 436.296 450.422C431.746 444.631 430.385 424.034 430.385 424.034Z" fill="#F3ABAA"/>
<path d="M431.77 435.822C430.775 429.649 430.385 424.034 430.385 424.034L387.457 421.167C387.457 421.167 397.422 441.409 431.77 435.822Z" fill="#0D0F44"/>
<path d="M426.048 427.714C447.521 419.778 458.302 396.358 450.128 375.404C441.954 354.45 417.92 343.898 396.447 351.834C374.974 359.771 364.192 383.191 372.366 404.145C380.54 425.099 404.575 435.651 426.048 427.714Z" fill="#F3ABAA"/>
<path d="M369.475 391.253C369.695 373.84 379.396 358.137 395.557 352.162C417.338 344.114 442.477 356.81 451.725 380.519C452.214 381.772 452.7 383.017 453.042 384.315L455.044 384.143C454.429 381.066 453.546 378.053 452.405 375.129C442.184 348.931 413.799 335.133 388.954 344.315C369.218 351.61 357.643 363.917 362.017 391.912L369.475 391.253Z" fill="#FFD550"/>
<path d="M455.598 338.846C451.305 327.843 437.754 322.65 425.352 327.233C423.137 328.055 421.045 329.16 419.14 330.515C412.377 328.028 404.856 327.619 397.646 329.349C383.337 332.882 366.434 345.489 367.747 372.89C368.492 377.805 369.96 382.575 372.11 387.067C372.11 387.067 383.551 388.651 389.134 376.354C394.578 364.364 402.899 360.882 408.684 362.32C416.466 364.293 423.131 371.968 440.86 367.075C441.707 366.935 442.514 366.611 443.214 366.129C447.764 371.19 450.92 377.228 452.426 383.75C460.058 369.786 457.699 357.745 454.976 354.331C457.3 349.353 457.522 343.812 455.598 338.846Z" fill="#0D0F44"/>
<path d="M386.708 395.664C391.941 406.919 390.694 418.407 383.938 421.311C377.18 424.214 365.24 417.099 360.209 405.759C354.424 392.726 358.235 383.471 364.995 380.545C371.755 377.618 381.476 384.409 386.708 395.664Z" fill="#FFB444"/>
<path d="M378.963 418.863C384.792 416.346 385.851 406.411 381.328 396.672C376.804 386.936 368.411 381.082 362.582 383.599C356.752 386.117 355.693 396.053 360.217 405.79C364.74 415.527 373.133 421.381 378.963 418.863Z" fill="#FFD550"/>
<path d="M419.188 386.725C419.155 383.72 417.778 381.347 416.113 381.425C414.447 381.504 413.124 384.004 413.158 387.009C413.191 390.014 414.568 392.387 416.233 392.308C417.899 392.23 419.223 389.73 419.188 386.725Z" fill="#0D0F44"/>
<path d="M444.563 383.828C444.534 380.806 443.153 378.418 441.478 378.495C439.802 378.571 438.469 381.084 438.497 384.106C438.526 387.128 439.907 389.516 441.581 389.439C443.256 389.364 444.591 386.85 444.563 383.828Z" fill="#0D0F44"/>
<path d="M402.009 405.971C401.034 409.135 405.329 414.785 413.053 412.38" stroke="#0D0F44" stroke-width="1.34399" stroke-miterlimit="10" stroke-linecap="round"/>
<path d="M429.728 388.756L431.224 400.172C431.266 400.502 431.236 400.839 431.132 401.162C431.028 401.485 430.855 401.789 430.624 402.051C430.392 402.315 430.107 402.534 429.785 402.693C429.464 402.852 429.113 402.951 428.755 402.979L425.809 403.222" stroke="#0D0F44" stroke-width="1.34399" stroke-miterlimit="10" stroke-linecap="round"/>
<g clip-path="url(#clip1)">
<path d="M545.036 931.442L456.886 986.326C455.421 987.238 453.791 987.854 452.088 988.139C450.386 988.424 448.644 988.373 446.963 987.988C445.282 987.603 443.695 986.892 442.291 985.896C440.888 984.899 439.696 983.637 438.784 982.181L403.833 926.409C402.062 923.584 401.443 920.19 402.101 916.921C402.76 913.651 404.647 910.752 407.378 908.815L492.837 848.15C494.536 847.092 496.427 846.377 498.402 846.045C500.377 845.714 502.398 845.774 504.348 846.22C506.297 846.667 508.139 847.492 509.767 848.648C511.395 849.804 512.777 851.269 513.834 852.959L549.895 910.522C552.034 913.931 552.724 918.049 551.813 921.972C550.902 925.895 548.464 929.301 545.036 931.442Z" fill="#475AEA"/>
<path d="M495.001 920.561L483.137 929.358L462.871 920.688L461.171 906.093C461.088 905.354 461.201 904.605 461.497 903.922C461.793 903.238 462.262 902.643 462.859 902.194L490.18 881.921C490.41 881.752 490.679 881.646 490.962 881.613C491.245 881.581 491.532 881.623 491.793 881.735C492.054 881.848 492.281 882.027 492.45 882.254C492.62 882.482 492.726 882.75 492.758 883.032L496.681 916.676C496.762 917.412 496.65 918.157 496.355 918.838C496.061 919.519 495.594 920.113 495.001 920.561Z" stroke="white" stroke-width="1.83242" stroke-miterlimit="10" stroke-linecap="round"/>
<path d="M483.237 929.398L475.928 946.233C475.182 947.942 472.811 948.568 470.618 947.612L458.187 942.281C455.999 941.346 454.83 939.195 455.565 937.489L462.872 920.688L483.237 929.398Z" stroke="white" stroke-width="1.83242" stroke-miterlimit="10" stroke-linecap="round"/>
<path d="M491.798 881.733L481.23 906.093" stroke="white" stroke-width="1.83242" stroke-miterlimit="10" stroke-linecap="round"/>
<path d="M480.393 917.422C483.613 916.586 485.549 913.311 484.718 910.107C483.886 906.903 480.601 904.984 477.381 905.82C474.161 906.656 472.225 909.931 473.057 913.135C473.888 916.338 477.173 918.258 480.393 917.422Z" stroke="white" stroke-width="1.83242" stroke-miterlimit="10" stroke-linecap="round"/>
</g>
</g>
<defs>
<clipPath id="clip0">
<rect width="888.952" height="958.458" fill="white" transform="translate(0 223.396) rotate(-14.5546)"/>
</clipPath>
<clipPath id="clip1">
<rect width="147.635" height="128.631" fill="white" transform="translate(389.265 872.704) rotate(-14.5546)"/>
</clipPath>
</defs>
</svg>
