<svg width="790" height="177" viewBox="0 0 790 177" fill="none" xmlns="http://www.w3.org/2000/svg">
<path d="M38.9589 109.4C40.5722 109.693 42.5522 109.987 44.8989 110.28C47.2456 110.427 49.4456 110.5 51.4989 110.5C56.4856 110.5 61.0322 109.767 65.1389 108.3C69.3922 106.833 72.9856 104.56 75.9189 101.48C78.9989 98.4 81.3456 94.44 82.9589 89.6C84.7189 84.6133 85.5989 78.6733 85.5989 71.78C85.5989 58.58 82.5189 48.68 76.3589 42.08C70.1989 35.3333 61.9856 31.96 51.7189 31.96C49.6656 31.96 47.5389 32.0333 45.3389 32.18C43.2856 32.3267 41.1589 32.5467 38.9589 32.84V109.4ZM51.2789 141.52C48.7856 141.52 45.9256 141.447 42.6989 141.3C39.4722 141.153 36.0989 140.86 32.5789 140.42C29.2056 139.98 25.7589 139.393 22.2389 138.66C18.8656 138.073 15.7122 137.193 12.7789 136.02C4.71224 132.94 0.678907 127.587 0.678907 119.96V17.22C0.678907 14.14 1.48557 11.7933 3.09891 10.18C4.85891 8.41999 7.20557 7.02666 10.1389 5.99999C16.4456 3.94666 23.1189 2.62666 30.1589 2.03999C37.1989 1.30666 43.5056 0.939994 49.0789 0.939994C60.5189 0.939994 70.8589 2.33333 80.0989 5.11999C89.4856 7.90666 97.4789 12.2333 104.079 18.1C110.826 23.82 116.032 31.08 119.699 39.88C123.366 48.68 125.199 59.0933 125.199 71.12C125.199 82.8533 123.439 93.12 119.919 101.92C116.399 110.573 111.339 117.907 104.739 123.92C98.2856 129.787 90.5122 134.187 81.4189 137.12C72.3256 140.053 62.2789 141.52 51.2789 141.52ZM144.342 32.62C145.809 32.18 148.082 31.74 151.162 31.3C154.389 30.86 157.689 30.64 161.062 30.64C164.289 30.64 167.149 30.86 169.642 31.3C172.282 31.74 174.482 32.62 176.242 33.94C178.002 35.26 179.322 37.0933 180.202 39.44C181.229 41.64 181.742 44.5733 181.742 48.24V95.54C181.742 101.553 183.209 105.88 186.142 108.52C189.076 111.013 193.329 112.26 198.902 112.26C202.276 112.26 204.989 111.967 207.042 111.38C209.242 110.793 210.929 110.207 212.102 109.62V32.62C213.569 32.18 215.842 31.74 218.922 31.3C222.149 30.86 225.449 30.64 228.822 30.64C232.049 30.64 234.909 30.86 237.402 31.3C240.042 31.74 242.242 32.62 244.002 33.94C245.762 35.26 247.082 37.0933 247.962 39.44C248.989 41.64 249.502 44.5733 249.502 48.24V115.12C249.502 122.453 246.422 127.953 240.262 131.62C235.129 134.847 228.969 137.267 221.782 138.88C214.742 140.64 207.042 141.52 198.682 141.52C190.762 141.52 183.429 140.64 176.682 138.88C170.082 137.12 164.362 134.407 159.522 130.74C154.682 127.073 150.942 122.38 148.302 116.66C145.662 110.793 144.342 103.753 144.342 95.54V32.62ZM323.649 27.78C329.663 27.78 335.529 28.66 341.249 30.42C347.116 32.0333 352.176 34.5267 356.429 37.9C360.829 34.9667 365.743 32.5467 371.169 30.64C376.743 28.7333 383.416 27.78 391.189 27.78C396.763 27.78 402.189 28.5133 407.469 29.98C412.896 31.4467 417.663 33.7933 421.769 37.02C426.023 40.1 429.396 44.28 431.889 49.56C434.383 54.6933 435.629 61 435.629 68.48V137.78C434.163 138.22 431.816 138.66 428.589 139.1C425.509 139.54 422.283 139.76 418.909 139.76C415.683 139.76 412.749 139.54 410.109 139.1C407.616 138.66 405.489 137.78 403.729 136.46C401.969 135.14 400.576 133.38 399.549 131.18C398.669 128.833 398.229 125.827 398.229 122.16V69.58C398.229 65.18 396.983 62.0267 394.489 60.12C391.996 58.0667 388.623 57.04 384.369 57.04C382.316 57.04 380.116 57.5533 377.769 58.58C375.423 59.46 373.663 60.4133 372.489 61.44C372.636 62.0267 372.709 62.6133 372.709 63.2C372.709 63.64 372.709 64.08 372.709 64.52V137.78C371.096 138.22 368.676 138.66 365.449 139.1C362.369 139.54 359.216 139.76 355.989 139.76C352.763 139.76 349.829 139.54 347.189 139.1C344.696 138.66 342.569 137.78 340.809 136.46C339.049 135.14 337.656 133.38 336.629 131.18C335.749 128.833 335.309 125.827 335.309 122.16V69.58C335.309 65.18 333.916 62.0267 331.129 60.12C328.489 58.0667 325.263 57.04 321.449 57.04C318.809 57.04 316.536 57.48 314.629 58.36C312.723 59.0933 311.109 59.8267 309.789 60.56V137.78C308.323 138.22 305.976 138.66 302.749 139.1C299.669 139.54 296.443 139.76 293.069 139.76C289.843 139.76 286.909 139.54 284.269 139.1C281.776 138.66 279.649 137.78 277.889 136.46C276.129 135.14 274.736 133.38 273.709 131.18C272.829 128.833 272.389 125.827 272.389 122.16V55.72C272.389 51.76 273.196 48.6067 274.809 46.26C276.569 43.9133 278.916 41.7133 281.849 39.66C286.836 36.14 292.996 33.28 300.329 31.08C307.809 28.88 315.583 27.78 323.649 27.78ZM509.704 27.78C515.717 27.78 521.584 28.66 527.304 30.42C533.171 32.0333 538.231 34.5267 542.484 37.9C546.884 34.9667 551.797 32.5467 557.224 30.64C562.797 28.7333 569.471 27.78 577.244 27.78C582.817 27.78 588.244 28.5133 593.524 29.98C598.951 31.4467 603.717 33.7933 607.824 37.02C612.077 40.1 615.451 44.28 617.944 49.56C620.437 54.6933 621.684 61 621.684 68.48V137.78C620.217 138.22 617.871 138.66 614.644 139.1C611.564 139.54 608.337 139.76 604.964 139.76C601.737 139.76 598.804 139.54 596.164 139.1C593.671 138.66 591.544 137.78 589.784 136.46C588.024 135.14 586.631 133.38 585.604 131.18C584.724 128.833 584.284 125.827 584.284 122.16V69.58C584.284 65.18 583.037 62.0267 580.544 60.12C578.051 58.0667 574.677 57.04 570.424 57.04C568.371 57.04 566.171 57.5533 563.824 58.58C561.477 59.46 559.717 60.4133 558.544 61.44C558.691 62.0267 558.764 62.6133 558.764 63.2C558.764 63.64 558.764 64.08 558.764 64.52V137.78C557.151 138.22 554.731 138.66 551.504 139.1C548.424 139.54 545.271 139.76 542.044 139.76C538.817 139.76 535.884 139.54 533.244 139.1C530.751 138.66 528.624 137.78 526.864 136.46C525.104 135.14 523.711 133.38 522.684 131.18C521.804 128.833 521.364 125.827 521.364 122.16V69.58C521.364 65.18 519.971 62.0267 517.184 60.12C514.544 58.0667 511.317 57.04 507.504 57.04C504.864 57.04 502.591 57.48 500.684 58.36C498.777 59.0933 497.164 59.8267 495.844 60.56V137.78C494.377 138.22 492.031 138.66 488.804 139.1C485.724 139.54 482.497 139.76 479.124 139.76C475.897 139.76 472.964 139.54 470.324 139.1C467.831 138.66 465.704 137.78 463.944 136.46C462.184 135.14 460.791 133.38 459.764 131.18C458.884 128.833 458.444 125.827 458.444 122.16V55.72C458.444 51.76 459.251 48.6067 460.864 46.26C462.624 43.9133 464.971 41.7133 467.904 39.66C472.891 36.14 479.051 33.28 486.384 31.08C493.864 28.88 501.637 27.78 509.704 27.78ZM657.996 110.72C656.383 107.053 654.623 102.947 652.716 98.4C650.956 93.8533 649.049 88.6467 646.996 82.78C645.089 76.9133 643.036 70.24 640.836 62.76C638.783 55.1333 636.583 46.4067 634.236 36.58C636.289 34.5267 639.003 32.7667 642.376 31.3C645.896 29.6867 649.709 28.88 653.816 28.88C658.949 28.88 663.203 29.98 666.576 32.18C669.949 34.2333 672.443 38.1933 674.056 44.06L691.436 104.56H692.316C694.076 99.5733 695.763 94.1467 697.376 88.28C699.136 82.4133 700.823 76.4 702.436 70.24C704.049 63.9333 705.516 57.7 706.836 51.54C708.303 45.2333 709.549 39.0733 710.576 33.06C715.856 30.2733 721.649 28.88 727.956 28.88C733.089 28.88 737.343 29.98 740.716 32.18C744.089 34.38 745.776 38.1933 745.776 43.62C745.776 47.58 745.263 52.2 744.236 57.48C743.209 62.6133 741.816 68.1133 740.056 73.98C738.443 79.8467 736.463 85.9333 734.116 92.24C731.916 98.4 729.569 104.487 727.076 110.5C724.583 116.513 722.016 122.233 719.376 127.66C716.736 132.94 714.169 137.707 711.676 141.96C707.569 149.147 703.756 155.013 700.236 159.56C696.716 164.107 693.343 167.627 690.116 170.12C686.889 172.76 683.663 174.52 680.436 175.4C677.209 176.427 673.836 176.94 670.316 176.94C664.156 176.94 659.169 175.107 655.356 171.44C651.543 167.773 649.269 163.007 648.536 157.14C653.229 153.473 657.923 149.367 662.616 144.82C667.309 140.42 671.563 135.873 675.376 131.18C672.883 130.447 670.169 128.76 667.236 126.12C664.449 123.333 661.369 118.2 657.996 110.72ZM747.039 120.18C747.039 114.02 748.946 108.887 752.759 104.78C756.573 100.673 761.779 98.62 768.379 98.62C774.979 98.62 780.186 100.673 783.999 104.78C787.813 108.887 789.719 114.02 789.719 120.18C789.719 126.34 787.813 131.473 783.999 135.58C780.186 139.687 774.979 141.74 768.379 141.74C761.779 141.74 756.573 139.687 752.759 135.58C748.946 131.473 747.039 126.34 747.039 120.18Z" fill="white"/>
</svg>
