<svg width="443" height="56" viewBox="0 0 443 56" fill="none" xmlns="http://www.w3.org/2000/svg">
<path d="M28.3875 34.43C28.3875 37.774 27.1335 40.392 24.6255 42.284C22.1175 44.176 18.4215 45.122 13.5375 45.122C11.6895 45.122 9.97351 44.99 8.38951 44.726C6.80551 44.462 5.44151 44.066 4.29751 43.538C3.19751 42.966 2.31751 42.262 1.65751 41.426C1.04151 40.59 0.733508 39.6 0.733508 38.456C0.733508 37.4 0.953508 36.52 1.39351 35.816C1.83351 35.068 2.36151 34.452 2.97751 33.968C4.25351 34.672 5.70551 35.31 7.33351 35.882C9.00551 36.41 10.9195 36.674 13.0755 36.674C14.4395 36.674 15.4735 36.476 16.1775 36.08C16.9255 35.684 17.2995 35.156 17.2995 34.496C17.2995 33.88 17.0355 33.396 16.5075 33.044C15.9795 32.692 15.0995 32.406 13.8675 32.186L11.8875 31.79C8.05951 31.042 5.19951 29.876 3.30751 28.292C1.45951 26.664 0.535508 24.354 0.535508 21.362C0.535508 19.734 0.887508 18.26 1.59151 16.94C2.29551 15.62 3.28551 14.52 4.56151 13.64C5.83751 12.76 7.35551 12.078 9.11551 11.594C10.9195 11.11 12.8995 10.868 15.0555 10.868C16.6835 10.868 18.2015 11 19.6095 11.264C21.0615 11.484 22.3155 11.836 23.3715 12.32C24.4275 12.804 25.2635 13.442 25.8795 14.234C26.4955 14.982 26.8035 15.884 26.8035 16.94C26.8035 17.952 26.6055 18.832 26.2095 19.58C25.8575 20.284 25.3955 20.878 24.8235 21.362C24.4715 21.142 23.9435 20.922 23.2395 20.702C22.5355 20.438 21.7655 20.218 20.9295 20.042C20.0935 19.822 19.2355 19.646 18.3555 19.514C17.5195 19.382 16.7495 19.316 16.0455 19.316C14.5935 19.316 13.4715 19.492 12.6795 19.844C11.8875 20.152 11.4915 20.658 11.4915 21.362C11.4915 21.846 11.7115 22.242 12.1515 22.55C12.5915 22.858 13.4275 23.144 14.6595 23.408L16.7055 23.87C20.9295 24.838 23.9215 26.18 25.6815 27.896C27.4855 29.568 28.3875 31.746 28.3875 34.43ZM65.4919 43.934C65.0519 44.066 64.3479 44.198 63.3799 44.33C62.4559 44.462 61.4879 44.528 60.4759 44.528C59.5079 44.528 58.6279 44.462 57.8359 44.33C57.0879 44.198 56.4499 43.934 55.9219 43.538C55.3939 43.142 54.9759 42.614 54.6679 41.954C54.4039 41.25 54.2719 40.348 54.2719 39.248V24.596C54.2719 22.792 53.8099 21.538 52.8859 20.834C52.0059 20.086 50.9059 19.712 49.5859 19.712C48.7059 19.712 47.8699 19.822 47.0779 20.042C46.2859 20.262 45.6479 20.526 45.1639 20.834V43.934C44.7239 44.066 44.0199 44.198 43.0519 44.33C42.1279 44.462 41.1599 44.528 40.1479 44.528C39.1799 44.528 38.2999 44.462 37.5079 44.33C36.7599 44.198 36.1219 43.934 35.5939 43.538C35.0659 43.142 34.6479 42.614 34.3399 41.954C34.0759 41.25 33.9439 40.348 33.9439 39.248V0.967999C34.4279 0.879998 35.1319 0.769998 36.0559 0.638C37.0239 0.461999 37.9919 0.373999 38.9599 0.373999C39.9279 0.373999 40.7859 0.439998 41.5339 0.571997C42.3259 0.703997 42.9859 0.967998 43.5139 1.364C44.0419 1.76 44.4379 2.31 44.7019 3.014C45.0099 3.674 45.1639 4.554 45.1639 5.654V12.122C45.7359 11.902 46.5939 11.66 47.7379 11.396C48.9259 11.088 50.2239 10.934 51.6319 10.934C55.9879 10.934 59.3759 12.034 61.7959 14.234C64.2599 16.39 65.4919 19.624 65.4919 23.936V43.934ZM105.617 27.962C105.617 30.69 105.199 33.132 104.363 35.288C103.527 37.4 102.339 39.182 100.799 40.634C99.3033 42.086 97.4993 43.186 95.3873 43.934C93.2753 44.682 90.9213 45.056 88.3253 45.056C85.7293 45.056 83.3753 44.66 81.2633 43.868C79.1513 43.076 77.3253 41.954 75.7853 40.502C74.2893 39.006 73.1233 37.202 72.2873 35.09C71.4513 32.978 71.0333 30.602 71.0333 27.962C71.0333 25.366 71.4513 23.012 72.2873 20.9C73.1233 18.788 74.2893 17.006 75.7853 15.554C77.3253 14.058 79.1513 12.914 81.2633 12.122C83.3753 11.33 85.7293 10.934 88.3253 10.934C90.9213 10.934 93.2753 11.352 95.3873 12.188C97.4993 12.98 99.3033 14.124 100.799 15.62C102.339 17.072 103.527 18.854 104.363 20.966C105.199 23.078 105.617 25.41 105.617 27.962ZM82.5173 27.962C82.5173 30.646 83.0233 32.714 84.0353 34.166C85.0913 35.574 86.5433 36.278 88.3913 36.278C90.2393 36.278 91.6473 35.552 92.6153 34.1C93.6273 32.648 94.1333 30.602 94.1333 27.962C94.1333 25.322 93.6273 23.298 92.6153 21.89C91.6033 20.438 90.1733 19.712 88.3253 19.712C86.4773 19.712 85.0473 20.438 84.0353 21.89C83.0233 23.298 82.5173 25.322 82.5173 27.962ZM125.809 10.934C128.449 10.934 130.891 11.286 133.135 11.99C135.423 12.65 137.381 13.684 139.009 15.092C140.637 16.5 141.913 18.282 142.837 20.438C143.761 22.55 144.223 25.08 144.223 28.028C144.223 30.844 143.827 33.308 143.035 35.42C142.243 37.532 141.121 39.314 139.669 40.766C138.217 42.174 136.457 43.23 134.389 43.934C132.365 44.638 130.099 44.99 127.591 44.99C125.699 44.99 123.939 44.704 122.311 44.132V55.088C121.871 55.22 121.167 55.352 120.199 55.484C119.231 55.66 118.241 55.748 117.229 55.748C116.261 55.748 115.381 55.682 114.589 55.55C113.841 55.418 113.203 55.154 112.675 54.758C112.147 54.362 111.751 53.812 111.487 53.108C111.223 52.448 111.091 51.568 111.091 50.468V18.788C111.091 17.6 111.333 16.632 111.817 15.884C112.345 15.136 113.049 14.454 113.929 13.838C115.293 12.958 116.987 12.254 119.011 11.726C121.035 11.198 123.301 10.934 125.809 10.934ZM125.941 36.146C130.473 36.146 132.739 33.44 132.739 28.028C132.739 25.212 132.167 23.122 131.023 21.758C129.923 20.394 128.317 19.712 126.205 19.712C125.369 19.712 124.621 19.822 123.961 20.042C123.301 20.218 122.729 20.438 122.245 20.702V35.222C122.773 35.486 123.345 35.706 123.961 35.882C124.577 36.058 125.237 36.146 125.941 36.146ZM189.971 34.43C189.971 37.774 188.717 40.392 186.209 42.284C183.701 44.176 180.005 45.122 175.121 45.122C173.273 45.122 171.557 44.99 169.973 44.726C168.389 44.462 167.025 44.066 165.881 43.538C164.781 42.966 163.901 42.262 163.241 41.426C162.625 40.59 162.317 39.6 162.317 38.456C162.317 37.4 162.537 36.52 162.977 35.816C163.417 35.068 163.945 34.452 164.561 33.968C165.837 34.672 167.289 35.31 168.917 35.882C170.589 36.41 172.503 36.674 174.659 36.674C176.023 36.674 177.057 36.476 177.761 36.08C178.509 35.684 178.883 35.156 178.883 34.496C178.883 33.88 178.619 33.396 178.091 33.044C177.563 32.692 176.683 32.406 175.451 32.186L173.471 31.79C169.643 31.042 166.783 29.876 164.891 28.292C163.043 26.664 162.119 24.354 162.119 21.362C162.119 19.734 162.471 18.26 163.175 16.94C163.879 15.62 164.869 14.52 166.145 13.64C167.421 12.76 168.939 12.078 170.699 11.594C172.503 11.11 174.483 10.868 176.639 10.868C178.267 10.868 179.785 11 181.193 11.264C182.645 11.484 183.899 11.836 184.955 12.32C186.011 12.804 186.847 13.442 187.463 14.234C188.079 14.982 188.387 15.884 188.387 16.94C188.387 17.952 188.189 18.832 187.793 19.58C187.441 20.284 186.979 20.878 186.407 21.362C186.055 21.142 185.527 20.922 184.823 20.702C184.119 20.438 183.349 20.218 182.513 20.042C181.677 19.822 180.819 19.646 179.939 19.514C179.103 19.382 178.333 19.316 177.629 19.316C176.177 19.316 175.055 19.492 174.263 19.844C173.471 20.152 173.075 20.658 173.075 21.362C173.075 21.846 173.295 22.242 173.735 22.55C174.175 22.858 175.011 23.144 176.243 23.408L178.289 23.87C182.513 24.838 185.505 26.18 187.265 27.896C189.069 29.568 189.971 31.746 189.971 34.43ZM210.774 10.934C212.578 10.934 214.338 11.198 216.054 11.726C217.814 12.21 219.332 12.958 220.608 13.97C221.928 13.09 223.402 12.364 225.03 11.792C226.702 11.22 228.704 10.934 231.036 10.934C232.708 10.934 234.336 11.154 235.92 11.594C237.548 12.034 238.978 12.738 240.21 13.706C241.486 14.63 242.498 15.884 243.246 17.468C243.994 19.008 244.368 20.9 244.368 23.144V43.934C243.928 44.066 243.224 44.198 242.256 44.33C241.332 44.462 240.364 44.528 239.352 44.528C238.384 44.528 237.504 44.462 236.712 44.33C235.964 44.198 235.326 43.934 234.798 43.538C234.27 43.142 233.852 42.614 233.544 41.954C233.28 41.25 233.148 40.348 233.148 39.248V23.474C233.148 22.154 232.774 21.208 232.026 20.636C231.278 20.02 230.266 19.712 228.99 19.712C228.374 19.712 227.714 19.866 227.01 20.174C226.306 20.438 225.778 20.724 225.426 21.032C225.47 21.208 225.492 21.384 225.492 21.56C225.492 21.692 225.492 21.824 225.492 21.956V43.934C225.008 44.066 224.282 44.198 223.314 44.33C222.39 44.462 221.444 44.528 220.476 44.528C219.508 44.528 218.628 44.462 217.836 44.33C217.088 44.198 216.45 43.934 215.922 43.538C215.394 43.142 214.976 42.614 214.668 41.954C214.404 41.25 214.272 40.348 214.272 39.248V23.474C214.272 22.154 213.854 21.208 213.018 20.636C212.226 20.02 211.258 19.712 210.114 19.712C209.322 19.712 208.64 19.844 208.068 20.108C207.496 20.328 207.012 20.548 206.616 20.768V43.934C206.176 44.066 205.472 44.198 204.504 44.33C203.58 44.462 202.612 44.528 201.6 44.528C200.632 44.528 199.752 44.462 198.96 44.33C198.212 44.198 197.574 43.934 197.046 43.538C196.518 43.142 196.1 42.614 195.792 41.954C195.528 41.25 195.396 40.348 195.396 39.248V19.316C195.396 18.128 195.638 17.182 196.122 16.478C196.65 15.774 197.354 15.114 198.234 14.498C199.73 13.442 201.578 12.584 203.778 11.924C206.022 11.264 208.354 10.934 210.774 10.934ZM264.94 36.872C265.688 36.872 266.502 36.806 267.382 36.674C268.306 36.498 268.988 36.278 269.428 36.014V30.734L264.676 31.13C263.444 31.218 262.432 31.482 261.64 31.922C260.848 32.362 260.452 33.022 260.452 33.902C260.452 34.782 260.782 35.508 261.442 36.08C262.146 36.608 263.312 36.872 264.94 36.872ZM264.412 10.934C266.788 10.934 268.944 11.176 270.88 11.66C272.86 12.144 274.532 12.892 275.896 13.904C277.304 14.872 278.382 16.126 279.13 17.666C279.878 19.162 280.252 20.944 280.252 23.012V37.796C280.252 38.94 279.922 39.886 279.262 40.634C278.646 41.338 277.898 41.954 277.018 42.482C274.158 44.198 270.132 45.056 264.94 45.056C262.608 45.056 260.496 44.836 258.604 44.396C256.756 43.956 255.15 43.296 253.786 42.416C252.466 41.536 251.432 40.414 250.684 39.05C249.98 37.686 249.628 36.102 249.628 34.298C249.628 31.262 250.53 28.93 252.334 27.302C254.138 25.674 256.932 24.662 260.716 24.266L269.362 23.342V22.88C269.362 21.604 268.79 20.702 267.646 20.174C266.546 19.602 264.94 19.316 262.828 19.316C261.156 19.316 259.528 19.492 257.944 19.844C256.36 20.196 254.93 20.636 253.654 21.164C253.082 20.768 252.598 20.174 252.202 19.382C251.806 18.546 251.608 17.688 251.608 16.808C251.608 15.664 251.872 14.762 252.4 14.102C252.972 13.398 253.83 12.804 254.974 12.32C256.25 11.836 257.746 11.484 259.462 11.264C261.222 11.044 262.872 10.934 264.412 10.934ZM298.333 43.934C297.893 44.066 297.189 44.198 296.221 44.33C295.297 44.462 294.329 44.528 293.317 44.528C292.349 44.528 291.469 44.462 290.677 44.33C289.929 44.198 289.291 43.934 288.763 43.538C288.235 43.142 287.817 42.614 287.509 41.954C287.245 41.25 287.113 40.348 287.113 39.248V19.448C287.113 18.436 287.289 17.578 287.641 16.874C288.037 16.126 288.587 15.466 289.291 14.894C289.995 14.322 290.853 13.816 291.865 13.376C292.921 12.892 294.043 12.474 295.231 12.122C296.419 11.77 297.651 11.506 298.927 11.33C300.203 11.11 301.479 11 302.755 11C304.867 11 306.539 11.418 307.771 12.254C309.003 13.046 309.619 14.366 309.619 16.214C309.619 16.83 309.531 17.446 309.355 18.062C309.179 18.634 308.959 19.162 308.695 19.646C307.771 19.646 306.825 19.69 305.857 19.778C304.889 19.866 303.943 19.998 303.019 20.174C302.095 20.35 301.215 20.548 300.379 20.768C299.587 20.944 298.905 21.164 298.333 21.428V43.934ZM325.467 32.978C325.467 34.122 325.819 34.936 326.523 35.42C327.271 35.904 328.305 36.146 329.625 36.146C330.285 36.146 330.967 36.102 331.671 36.014C332.375 35.882 332.991 35.728 333.519 35.552C333.915 36.036 334.245 36.586 334.509 37.202C334.817 37.774 334.971 38.478 334.971 39.314C334.971 40.986 334.333 42.35 333.057 43.406C331.825 44.462 329.625 44.99 326.457 44.99C322.585 44.99 319.593 44.11 317.481 42.35C315.413 40.59 314.379 37.73 314.379 33.77V5.522C314.863 5.39 315.545 5.258 316.425 5.126C317.349 4.95 318.317 4.862 319.329 4.862C321.265 4.862 322.761 5.214 323.817 5.918C324.917 6.578 325.467 8.008 325.467 10.208V14.432H334.113C334.377 14.916 334.619 15.532 334.839 16.28C335.103 16.984 335.235 17.776 335.235 18.656C335.235 20.196 334.883 21.318 334.179 22.022C333.519 22.682 332.617 23.012 331.473 23.012H325.467V32.978ZM357.248 45.056C354.652 45.056 352.232 44.704 349.988 44C347.788 43.252 345.852 42.152 344.18 40.7C342.552 39.248 341.254 37.422 340.286 35.222C339.362 33.022 338.9 30.448 338.9 27.5C338.9 24.596 339.362 22.11 340.286 20.042C341.254 17.93 342.508 16.214 344.048 14.894C345.588 13.53 347.348 12.54 349.328 11.924C351.308 11.264 353.332 10.934 355.4 10.934C357.732 10.934 359.844 11.286 361.736 11.99C363.672 12.694 365.322 13.662 366.686 14.894C368.094 16.126 369.172 17.6 369.92 19.316C370.712 21.032 371.108 22.902 371.108 24.926C371.108 26.422 370.69 27.566 369.854 28.358C369.018 29.15 367.852 29.656 366.356 29.876L350.054 32.318C350.538 33.77 351.528 34.87 353.024 35.618C354.52 36.322 356.236 36.674 358.172 36.674C359.976 36.674 361.67 36.454 363.254 36.014C364.882 35.53 366.202 34.98 367.214 34.364C367.918 34.804 368.512 35.42 368.996 36.212C369.48 37.004 369.722 37.84 369.722 38.72C369.722 40.7 368.798 42.174 366.95 43.142C365.542 43.89 363.958 44.396 362.198 44.66C360.438 44.924 358.788 45.056 357.248 45.056ZM355.4 19.118C354.344 19.118 353.42 19.294 352.628 19.646C351.88 19.998 351.264 20.46 350.78 21.032C350.296 21.56 349.922 22.176 349.658 22.88C349.438 23.54 349.306 24.222 349.262 24.926L360.548 23.078C360.416 22.198 359.932 21.318 359.096 20.438C358.26 19.558 357.028 19.118 355.4 19.118ZM387.729 43.934C387.289 44.066 386.585 44.198 385.617 44.33C384.693 44.462 383.725 44.528 382.713 44.528C381.745 44.528 380.865 44.462 380.073 44.33C379.325 44.198 378.687 43.934 378.159 43.538C377.631 43.142 377.213 42.614 376.905 41.954C376.641 41.25 376.509 40.348 376.509 39.248V19.448C376.509 18.436 376.685 17.578 377.037 16.874C377.433 16.126 377.983 15.466 378.687 14.894C379.391 14.322 380.249 13.816 381.261 13.376C382.317 12.892 383.439 12.474 384.627 12.122C385.815 11.77 387.047 11.506 388.323 11.33C389.599 11.11 390.875 11 392.151 11C394.263 11 395.935 11.418 397.167 12.254C398.399 13.046 399.015 14.366 399.015 16.214C399.015 16.83 398.927 17.446 398.751 18.062C398.575 18.634 398.355 19.162 398.091 19.646C397.167 19.646 396.221 19.69 395.253 19.778C394.285 19.866 393.339 19.998 392.415 20.174C391.491 20.35 390.611 20.548 389.775 20.768C388.983 20.944 388.301 21.164 387.729 21.428V43.934ZM398.377 38.654C398.377 36.806 398.949 35.266 400.093 34.034C401.237 32.802 402.799 32.186 404.779 32.186C406.759 32.186 408.321 32.802 409.465 34.034C410.609 35.266 411.181 36.806 411.181 38.654C411.181 40.502 410.609 42.042 409.465 43.274C408.321 44.506 406.759 45.122 404.779 45.122C402.799 45.122 401.237 44.506 400.093 43.274C398.949 42.042 398.377 40.502 398.377 38.654ZM414.103 38.654C414.103 36.806 414.675 35.266 415.819 34.034C416.963 32.802 418.525 32.186 420.505 32.186C422.485 32.186 424.047 32.802 425.191 34.034C426.335 35.266 426.907 36.806 426.907 38.654C426.907 40.502 426.335 42.042 425.191 43.274C424.047 44.506 422.485 45.122 420.505 45.122C418.525 45.122 416.963 44.506 415.819 43.274C414.675 42.042 414.103 40.502 414.103 38.654ZM429.83 38.654C429.83 36.806 430.402 35.266 431.546 34.034C432.69 32.802 434.252 32.186 436.232 32.186C438.212 32.186 439.774 32.802 440.918 34.034C442.062 35.266 442.634 36.806 442.634 38.654C442.634 40.502 442.062 42.042 440.918 43.274C439.774 44.506 438.212 45.122 436.232 45.122C434.252 45.122 432.69 44.506 431.546 43.274C430.402 42.042 429.83 40.502 429.83 38.654Z" fill="white"/>
</svg>
