<svg width="698" height="121" viewBox="0 0 698 121" fill="none" xmlns="http://www.w3.org/2000/svg">
<g filter="url(#filter0_d)">
<path d="M666.796 5.91278e-05H32.2496C19.7334 5.91278e-05 9.58716 10.0843 9.58716 22.5238V78.8333C9.58716 91.2729 19.7334 101.357 32.2496 101.357H666.796C679.311 101.357 689.456 91.2729 689.456 78.8333V22.5238C689.456 10.0843 679.311 5.91278e-05 666.796 5.91278e-05Z" fill="#62EDC5"/>
</g>
<path d="M87.9654 52.0566C84.4276 51.0397 81.8495 49.7936 80.231 48.3184C78.6269 46.8288 77.8248 44.9954 77.8248 42.8184C77.8248 40.3548 78.8059 38.321 80.7681 36.7168C82.7447 35.0983 85.3085 34.2891 88.4595 34.2891C90.608 34.2891 92.5201 34.7044 94.1959 35.5352C95.886 36.3659 97.1894 37.5117 98.106 38.9727C99.037 40.4336 99.5025 42.0306 99.5025 43.7637H95.356C95.356 41.873 94.7545 40.3906 93.5513 39.3164C92.3482 38.2279 90.651 37.6836 88.4595 37.6836C86.4257 37.6836 84.8359 38.1348 83.69 39.0371C82.5585 39.9251 81.9928 41.1641 81.9928 42.7539C81.9928 44.0286 82.5299 45.11 83.6041 45.998C84.6926 46.8717 86.5331 47.6738 89.1256 48.4043C91.7323 49.1348 93.7662 49.944 95.2271 50.832C96.7024 51.7057 97.7909 52.7298 98.4928 53.9043C99.2089 55.0788 99.567 56.4609 99.567 58.0508C99.567 60.5859 98.5787 62.6198 96.6021 64.1523C94.6256 65.6706 91.983 66.4297 88.6744 66.4297C86.526 66.4297 84.5207 66.0215 82.6588 65.2051C80.7968 64.3743 79.3573 63.2428 78.3404 61.8105C77.3378 60.3783 76.8365 58.7526 76.8365 56.9336H80.983C80.983 58.8242 81.6776 60.321 83.067 61.4238C84.4706 62.5124 86.3398 63.0566 88.6744 63.0566C90.8515 63.0566 92.5201 62.6126 93.6803 61.7246C94.8404 60.8366 95.4205 59.6263 95.4205 58.0938C95.4205 56.5612 94.8834 55.3796 93.8092 54.5488C92.7349 53.7038 90.787 52.873 87.9654 52.0566ZM109.643 37.125V42.7539H113.983V45.8262H109.643V60.2422C109.643 61.1732 109.837 61.875 110.223 62.3477C110.61 62.806 111.269 63.0352 112.2 63.0352C112.658 63.0352 113.288 62.9492 114.09 62.7773V66C113.045 66.2865 112.028 66.4297 111.04 66.4297C109.264 66.4297 107.924 65.8926 107.022 64.8184C106.12 63.7441 105.669 62.2188 105.669 60.2422V45.8262H101.436V42.7539H105.669V37.125H109.643ZM132.997 66C132.767 65.5417 132.581 64.7253 132.438 63.5508C130.59 65.4701 128.385 66.4297 125.821 66.4297C123.529 66.4297 121.646 65.7852 120.17 64.4961C118.71 63.1927 117.979 61.5456 117.979 59.5547C117.979 57.1341 118.896 55.2578 120.729 53.9258C122.577 52.5794 125.169 51.9062 128.506 51.9062H132.374V50.0801C132.374 48.6908 131.958 47.5879 131.128 46.7715C130.297 45.9408 129.072 45.5254 127.454 45.5254C126.036 45.5254 124.847 45.8835 123.887 46.5996C122.928 47.3158 122.448 48.1823 122.448 49.1992H118.452C118.452 48.0391 118.86 46.9219 119.676 45.8477C120.507 44.7591 121.624 43.8997 123.028 43.2695C124.446 42.6393 126 42.3242 127.69 42.3242C130.368 42.3242 132.467 42.9974 133.985 44.3438C135.503 45.6758 136.291 47.5163 136.348 49.8652V60.5645C136.348 62.6986 136.62 64.3958 137.165 65.6562V66H132.997ZM126.401 62.9707C127.647 62.9707 128.829 62.6484 129.946 62.0039C131.063 61.3594 131.872 60.5215 132.374 59.4902V54.7207H129.258C124.389 54.7207 121.954 56.1458 121.954 58.9961C121.954 60.2422 122.369 61.2161 123.2 61.918C124.031 62.6198 125.098 62.9707 126.401 62.9707ZM153.815 46.3203C153.213 46.2201 152.562 46.1699 151.86 46.1699C149.253 46.1699 147.484 47.2799 146.553 49.5V66H142.579V42.7539H146.446L146.51 45.4395C147.814 43.3626 149.661 42.3242 152.053 42.3242C152.827 42.3242 153.414 42.4245 153.815 42.625V46.3203ZM163.956 37.125V42.7539H168.295V45.8262H163.956V60.2422C163.956 61.1732 164.149 61.875 164.536 62.3477C164.922 62.806 165.581 63.0352 166.512 63.0352C166.971 63.0352 167.601 62.9492 168.403 62.7773V66C167.357 66.2865 166.34 66.4297 165.352 66.4297C163.576 66.4297 162.237 65.8926 161.335 64.8184C160.432 63.7441 159.981 62.2188 159.981 60.2422V45.8262H155.749V42.7539H159.981V37.125H163.956Z" fill="black"/>
<path d="M584 46.4167H642.255L627.537 31.7575L633.333 26L658 50.5L633.333 75L627.537 69.2425L642.255 54.5834H584V46.4167Z" fill="black"/>
<defs>
<filter id="filter0_d" x="5.58716" y="5.91278e-05" width="687.869" height="109.357" filterUnits="userSpaceOnUse" color-interpolation-filters="sRGB">
<feFlood flood-opacity="0" result="BackgroundImageFix"/>
<feColorMatrix in="SourceAlpha" type="matrix" values="0 0 0 0 0 0 0 0 0 0 0 0 0 0 0 0 0 0 127 0"/>
<feOffset dy="4"/>
<feGaussianBlur stdDeviation="2"/>
<feColorMatrix type="matrix" values="0 0 0 0 0 0 0 0 0 0 0 0 0 0 0 0 0 0 0.3 0"/>
<feBlend mode="normal" in2="BackgroundImageFix" result="effect1_dropShadow"/>
<feBlend mode="normal" in="SourceGraphic" in2="effect1_dropShadow" result="shape"/>
</filter>
</defs>
</svg>
