<svg width="360" height="81" viewBox="0 0 360 81" fill="none" xmlns="http://www.w3.org/2000/svg">
<path d="M17.9 50C18.6333 50.1333 19.5333 50.2667 20.6 50.4C21.6667 50.4667 22.6667 50.5 23.6 50.5C25.8667 50.5 27.9333 50.1667 29.8 49.5C31.7333 48.8333 33.3667 47.8 34.7 46.4C36.1 45 37.1667 43.2 37.9 41C38.7 38.7333 39.1 36.0333 39.1 32.9C39.1 26.9 37.7 22.4 34.9 19.4C32.1 16.3333 28.3667 14.8 23.7 14.8C22.7667 14.8 21.8 14.8333 20.8 14.9C19.8667 14.9667 18.9 15.0667 17.9 15.2V50ZM23.5 64.6C22.3667 64.6 21.0667 64.5667 19.6 64.5C18.1333 64.4333 16.6 64.3 15 64.1C13.4667 63.9 11.9 63.6333 10.3 63.3C8.76667 63.0333 7.33333 62.6333 6 62.1C2.33333 60.7 0.500001 58.2667 0.500001 54.8V8.1C0.500001 6.7 0.866667 5.63333 1.6 4.9C2.4 4.1 3.46667 3.46666 4.8 3C7.66667 2.06666 10.7 1.46666 13.9 1.2C17.1 0.866664 19.9667 0.699997 22.5 0.699997C27.7 0.699997 32.4 1.33333 36.6 2.6C40.8667 3.86666 44.5 5.83333 47.5 8.5C50.5667 11.1 52.9333 14.4 54.6 18.4C56.2667 22.4 57.1 27.1333 57.1 32.6C57.1 37.9333 56.3 42.6 54.7 46.6C53.1 50.5333 50.8 53.8667 47.8 56.6C44.8667 59.2667 41.3333 61.2667 37.2 62.6C33.0667 63.9333 28.5 64.6 23.5 64.6ZM65.8016 15.1C66.4682 14.9 67.5016 14.7 68.9016 14.5C70.3682 14.3 71.8682 14.2 73.4016 14.2C74.8682 14.2 76.1682 14.3 77.3016 14.5C78.5016 14.7 79.5016 15.1 80.3016 15.7C81.1016 16.3 81.7016 17.1333 82.1016 18.2C82.5682 19.2 82.8016 20.5333 82.8016 22.2V43.7C82.8016 46.4333 83.4682 48.4 84.8016 49.6C86.1349 50.7333 88.0682 51.3 90.6016 51.3C92.1349 51.3 93.3682 51.1667 94.3016 50.9C95.3016 50.6333 96.0682 50.3667 96.6016 50.1V15.1C97.2682 14.9 98.3016 14.7 99.7016 14.5C101.168 14.3 102.668 14.2 104.202 14.2C105.668 14.2 106.968 14.3 108.102 14.5C109.302 14.7 110.302 15.1 111.102 15.7C111.902 16.3 112.502 17.1333 112.902 18.2C113.368 19.2 113.602 20.5333 113.602 22.2V52.6C113.602 55.9333 112.202 58.4333 109.402 60.1C107.068 61.5667 104.268 62.6667 101.002 63.4C97.8016 64.2 94.3016 64.6 90.5016 64.6C86.9016 64.6 83.5682 64.2 80.5016 63.4C77.5016 62.6 74.9016 61.3667 72.7016 59.7C70.5016 58.0333 68.8016 55.9 67.6016 53.3C66.4016 50.6333 65.8016 47.4333 65.8016 43.7V15.1ZM147.305 12.9C150.038 12.9 152.705 13.3 155.305 14.1C157.971 14.8333 160.271 15.9667 162.205 17.5C164.205 16.1667 166.438 15.0667 168.905 14.2C171.438 13.3333 174.471 12.9 178.005 12.9C180.538 12.9 183.005 13.2333 185.405 13.9C187.871 14.5667 190.038 15.6333 191.905 17.1C193.838 18.5 195.371 20.4 196.505 22.8C197.638 25.1333 198.205 28 198.205 31.4V62.9C197.538 63.1 196.471 63.3 195.005 63.5C193.605 63.7 192.138 63.8 190.605 63.8C189.138 63.8 187.805 63.7 186.605 63.5C185.471 63.3 184.505 62.9 183.705 62.3C182.905 61.7 182.271 60.9 181.805 59.9C181.405 58.8333 181.205 57.4667 181.205 55.8V31.9C181.205 29.9 180.638 28.4667 179.505 27.6C178.371 26.6667 176.838 26.2 174.905 26.2C173.971 26.2 172.971 26.4333 171.905 26.9C170.838 27.3 170.038 27.7333 169.505 28.2C169.571 28.4667 169.605 28.7333 169.605 29C169.605 29.2 169.605 29.4 169.605 29.6V62.9C168.871 63.1 167.771 63.3 166.305 63.5C164.905 63.7 163.471 63.8 162.005 63.8C160.538 63.8 159.205 63.7 158.005 63.5C156.871 63.3 155.905 62.9 155.105 62.3C154.305 61.7 153.671 60.9 153.205 59.9C152.805 58.8333 152.605 57.4667 152.605 55.8V31.9C152.605 29.9 151.971 28.4667 150.705 27.6C149.505 26.6667 148.038 26.2 146.305 26.2C145.105 26.2 144.071 26.4 143.205 26.8C142.338 27.1333 141.605 27.4667 141.005 27.8V62.9C140.338 63.1 139.271 63.3 137.805 63.5C136.405 63.7 134.938 63.8 133.405 63.8C131.938 63.8 130.605 63.7 129.405 63.5C128.271 63.3 127.305 62.9 126.505 62.3C125.705 61.7 125.071 60.9 124.605 59.9C124.205 58.8333 124.005 57.4667 124.005 55.8V25.6C124.005 23.8 124.371 22.3667 125.105 21.3C125.905 20.2333 126.971 19.2333 128.305 18.3C130.571 16.7 133.371 15.4 136.705 14.4C140.105 13.4 143.638 12.9 147.305 12.9ZM231.875 12.9C234.608 12.9 237.275 13.3 239.875 14.1C242.542 14.8333 244.842 15.9667 246.775 17.5C248.775 16.1667 251.008 15.0667 253.475 14.2C256.008 13.3333 259.042 12.9 262.575 12.9C265.108 12.9 267.575 13.2333 269.975 13.9C272.442 14.5667 274.608 15.6333 276.475 17.1C278.408 18.5 279.942 20.4 281.075 22.8C282.208 25.1333 282.775 28 282.775 31.4V62.9C282.108 63.1 281.042 63.3 279.575 63.5C278.175 63.7 276.708 63.8 275.175 63.8C273.708 63.8 272.375 63.7 271.175 63.5C270.042 63.3 269.075 62.9 268.275 62.3C267.475 61.7 266.842 60.9 266.375 59.9C265.975 58.8333 265.775 57.4667 265.775 55.8V31.9C265.775 29.9 265.208 28.4667 264.075 27.6C262.942 26.6667 261.408 26.2 259.475 26.2C258.542 26.2 257.542 26.4333 256.475 26.9C255.408 27.3 254.608 27.7333 254.075 28.2C254.142 28.4667 254.175 28.7333 254.175 29C254.175 29.2 254.175 29.4 254.175 29.6V62.9C253.442 63.1 252.342 63.3 250.875 63.5C249.475 63.7 248.042 63.8 246.575 63.8C245.108 63.8 243.775 63.7 242.575 63.5C241.442 63.3 240.475 62.9 239.675 62.3C238.875 61.7 238.242 60.9 237.775 59.9C237.375 58.8333 237.175 57.4667 237.175 55.8V31.9C237.175 29.9 236.542 28.4667 235.275 27.6C234.075 26.6667 232.608 26.2 230.875 26.2C229.675 26.2 228.642 26.4 227.775 26.8C226.908 27.1333 226.175 27.4667 225.575 27.8V62.9C224.908 63.1 223.842 63.3 222.375 63.5C220.975 63.7 219.508 63.8 217.975 63.8C216.508 63.8 215.175 63.7 213.975 63.5C212.842 63.3 211.875 62.9 211.075 62.3C210.275 61.7 209.642 60.9 209.175 59.9C208.775 58.8333 208.575 57.4667 208.575 55.8V25.6C208.575 23.8 208.942 22.3667 209.675 21.3C210.475 20.2333 211.542 19.2333 212.875 18.3C215.142 16.7 217.942 15.4 221.275 14.4C224.675 13.4 228.208 12.9 231.875 12.9ZM299.28 50.6C298.547 48.9333 297.747 47.0667 296.88 45C296.08 42.9333 295.214 40.5667 294.28 37.9C293.414 35.2333 292.48 32.2 291.48 28.8C290.547 25.3333 289.547 21.3667 288.48 16.9C289.414 15.9667 290.647 15.1667 292.18 14.5C293.78 13.7667 295.514 13.4 297.38 13.4C299.714 13.4 301.647 13.9 303.18 14.9C304.714 15.8333 305.847 17.6333 306.58 20.3L314.48 47.8H314.88C315.68 45.5333 316.447 43.0667 317.18 40.4C317.98 37.7333 318.747 35 319.48 32.2C320.214 29.3333 320.88 26.5 321.48 23.7C322.147 20.8333 322.714 18.0333 323.18 15.3C325.58 14.0333 328.214 13.4 331.08 13.4C333.414 13.4 335.347 13.9 336.88 14.9C338.414 15.9 339.18 17.6333 339.18 20.1C339.18 21.9 338.947 24 338.48 26.4C338.014 28.7333 337.38 31.2333 336.58 33.9C335.847 36.5667 334.947 39.3333 333.88 42.2C332.88 45 331.814 47.7667 330.68 50.5C329.547 53.2333 328.38 55.8333 327.18 58.3C325.98 60.7 324.814 62.8667 323.68 64.8C321.814 68.0667 320.08 70.7333 318.48 72.8C316.88 74.8667 315.347 76.4667 313.88 77.6C312.414 78.8 310.947 79.6 309.48 80C308.014 80.4667 306.48 80.7 304.88 80.7C302.08 80.7 299.814 79.8667 298.08 78.2C296.347 76.5333 295.314 74.3667 294.98 71.7C297.114 70.0333 299.247 68.1667 301.38 66.1C303.514 64.1 305.447 62.0333 307.18 59.9C306.047 59.5667 304.814 58.8 303.48 57.6C302.214 56.3333 300.814 54 299.28 50.6ZM339.755 54.9C339.755 52.1 340.621 49.7667 342.355 47.9C344.088 46.0333 346.455 45.1 349.455 45.1C352.455 45.1 354.821 46.0333 356.555 47.9C358.288 49.7667 359.155 52.1 359.155 54.9C359.155 57.7 358.288 60.0333 356.555 61.9C354.821 63.7667 352.455 64.7 349.455 64.7C346.455 64.7 344.088 63.7667 342.355 61.9C340.621 60.0333 339.755 57.7 339.755 54.9Z" fill="white"/>
</svg>
