<svg width="227" height="133" viewBox="0 0 227 133" fill="none" xmlns="http://www.w3.org/2000/svg">
<path d="M14.5005 18.5C16.1805 18.5 17.4605 18.12 18.3405 17.36C19.2605 16.56 19.7205 15.36 19.7205 13.76C19.7205 12.24 19.2405 11.08 18.2805 10.28C17.3605 9.44 16.0005 9.02 14.2005 9.02C13.5605 9.02 13.0205 9.04 12.5805 9.08C12.1805 9.08 11.7605 9.12 11.3205 9.2V18.5H14.5005ZM11.3805 37.76C10.9405 37.88 10.2405 38 9.28047 38.12C8.36047 38.24 7.44047 38.3 6.52047 38.3C5.60047 38.3 4.78047 38.22 4.06047 38.06C3.38047 37.94 2.80047 37.7 2.32047 37.34C1.84047 36.98 1.48047 36.48 1.24047 35.84C1.00047 35.2 0.880469 34.36 0.880469 33.32V5.06C0.880469 4.22 1.10047 3.58 1.54047 3.14C2.02047 2.66 2.66047 2.28 3.46047 2C4.82047 1.52 6.36047 1.18 8.08047 0.979997C9.84047 0.739998 11.6005 0.619998 13.3605 0.619998C18.8805 0.619998 23.1005 1.8 26.0205 4.16C28.9405 6.52 30.4005 9.72 30.4005 13.76C30.4005 15.72 30.0805 17.5 29.4405 19.1C28.8405 20.66 27.9205 22.02 26.6805 23.18C25.4805 24.3 23.9405 25.18 22.0605 25.82C20.2205 26.42 18.0805 26.72 15.6405 26.72H11.3805V37.76ZM33.9438 19.76C33.9438 16.64 34.4238 13.88 35.3838 11.48C36.3838 9.08 37.7238 7.08 39.4038 5.48C41.1238 3.84 43.1238 2.6 45.4038 1.76C47.7238 0.919999 50.2238 0.5 52.9038 0.5C55.5838 0.5 58.0638 0.919999 60.3438 1.76C62.6638 2.6 64.6838 3.84 66.4038 5.48C68.1238 7.08 69.4638 9.08 70.4238 11.48C71.4238 13.88 71.9238 16.64 71.9238 19.76C71.9238 22.88 71.4438 25.66 70.4838 28.1C69.5238 30.5 68.1838 32.52 66.4638 34.16C64.7838 35.76 62.7838 36.98 60.4638 37.82C58.1438 38.66 55.6238 39.08 52.9038 39.08C50.1838 39.08 47.6638 38.66 45.3438 37.82C43.0238 36.94 41.0238 35.68 39.3438 34.04C37.6638 32.4 36.3438 30.38 35.3838 27.98C34.4238 25.58 33.9438 22.84 33.9438 19.76ZM44.7438 19.76C44.7438 23.4 45.4838 26.12 46.9638 27.92C48.4438 29.72 50.4238 30.62 52.9038 30.62C55.4238 30.62 57.4238 29.72 58.9038 27.92C60.3838 26.12 61.1238 23.4 61.1238 19.76C61.1238 16.16 60.3838 13.46 58.9038 11.66C57.4638 9.86 55.4838 8.96 52.9638 8.96C50.4838 8.96 48.4838 9.86 46.9638 11.66C45.4838 13.42 44.7438 16.12 44.7438 19.76ZM88.2513 23.54C86.4913 22.94 84.8913 22.34 83.4513 21.74C82.0113 21.1 80.7713 20.34 79.7313 19.46C78.6913 18.58 77.8713 17.54 77.2713 16.34C76.7113 15.1 76.4313 13.6 76.4313 11.84C76.4313 8.44 77.7313 5.72 80.3313 3.68C82.9713 1.64 86.6513 0.619998 91.3713 0.619998C93.0913 0.619998 94.6913 0.739998 96.1713 0.979997C97.6513 1.22 98.9113 1.6 99.9513 2.12C101.031 2.6 101.871 3.24 102.471 4.04C103.071 4.8 103.371 5.7 103.371 6.74C103.371 7.78 103.131 8.68 102.651 9.44C102.171 10.16 101.591 10.78 100.911 11.3C100.031 10.74 98.8513 10.26 97.3713 9.86C95.8913 9.42 94.2713 9.2 92.5113 9.2C90.7113 9.2 89.3913 9.46 88.5513 9.98C87.7113 10.46 87.2913 11.08 87.2913 11.84C87.2913 12.44 87.5513 12.94 88.0713 13.34C88.5913 13.7 89.3713 14.04 90.4113 14.36L93.5913 15.38C97.3513 16.58 100.231 18.12 102.231 20C104.271 21.84 105.291 24.36 105.291 27.56C105.291 30.96 103.951 33.72 101.271 35.84C98.5913 37.92 94.6513 38.96 89.4512 38.96C87.6113 38.96 85.8913 38.8 84.2913 38.48C82.7313 38.2 81.3513 37.78 80.1513 37.22C78.9913 36.62 78.0713 35.9 77.3913 35.06C76.7513 34.18 76.4313 33.18 76.4313 32.06C76.4313 30.9 76.7713 29.92 77.4513 29.12C78.1313 28.28 78.8713 27.64 79.6713 27.2C80.7913 28.08 82.1513 28.84 83.7513 29.48C85.3913 30.12 87.1713 30.44 89.0913 30.44C91.0513 30.44 92.4313 30.14 93.2313 29.54C94.0313 28.94 94.4313 28.24 94.4313 27.44C94.4313 26.64 94.1113 26.04 93.4713 25.64C92.8313 25.2 91.9313 24.78 90.7713 24.38L88.2513 23.54ZM108.536 10.04C108.256 9.6 107.996 9 107.756 8.24C107.516 7.48 107.396 6.68 107.396 5.84C107.396 4.28 107.736 3.16 108.416 2.48C109.136 1.8 110.056 1.46 111.176 1.46H137.336C137.616 1.9 137.876 2.5 138.116 3.26C138.356 4.02 138.476 4.82 138.476 5.66C138.476 7.22 138.116 8.34 137.396 9.02C136.716 9.7 135.816 10.04 134.696 10.04H128.036V37.76C127.596 37.88 126.896 38 125.936 38.12C125.016 38.24 124.096 38.3 123.176 38.3C122.256 38.3 121.436 38.22 120.716 38.06C120.036 37.94 119.456 37.7 118.976 37.34C118.496 36.98 118.136 36.48 117.896 35.84C117.656 35.2 117.536 34.36 117.536 33.32V10.04H108.536ZM163.308 2.72C163.988 2.32 165.008 1.94 166.368 1.58C167.768 1.22 169.168 1.04 170.568 1.04C172.568 1.04 174.328 1.34 175.848 1.94C177.408 2.5 178.408 3.4 178.848 4.64C179.568 6.72 180.348 9.14 181.188 11.9C182.028 14.66 182.868 17.52 183.708 20.48C184.548 23.4 185.368 26.3 186.168 29.18C186.968 32.02 187.668 34.54 188.268 36.74C187.788 37.3 187.068 37.74 186.108 38.06C185.148 38.42 184.008 38.6 182.688 38.6C181.728 38.6 180.908 38.52 180.228 38.36C179.588 38.2 179.048 37.96 178.608 37.64C178.208 37.32 177.868 36.9 177.588 36.38C177.348 35.86 177.128 35.26 176.928 34.58L175.848 30.44H164.988C164.668 31.64 164.348 32.88 164.028 34.16C163.708 35.44 163.388 36.68 163.068 37.88C162.508 38.08 161.908 38.24 161.268 38.36C160.668 38.52 159.928 38.6 159.048 38.6C157.008 38.6 155.488 38.26 154.488 37.58C153.528 36.86 153.048 35.88 153.048 34.64C153.048 34.08 153.128 33.52 153.288 32.96C153.448 32.4 153.628 31.74 153.828 30.98C154.108 29.9 154.488 28.56 154.968 26.96C155.488 25.36 156.048 23.64 156.648 21.8C157.248 19.92 157.888 18 158.568 16.04C159.248 14.08 159.888 12.24 160.488 10.52C161.088 8.76 161.628 7.2 162.108 5.84C162.628 4.48 163.028 3.44 163.308 2.72ZM170.508 10.46C169.948 12.14 169.308 14.02 168.588 16.1C167.908 18.14 167.288 20.22 166.728 22.34H174.168C173.608 20.18 173.028 18.08 172.428 16.04C171.868 13.96 171.348 12.1 170.868 10.46H170.508ZM226.125 36.74C225.565 37.3 224.745 37.72 223.665 38C222.625 38.32 221.365 38.48 219.885 38.48C218.405 38.48 217.005 38.26 215.685 37.82C214.365 37.38 213.285 36.32 212.445 34.64L206.505 22.52C205.905 21.28 205.365 20.12 204.885 19.04C204.405 17.92 203.885 16.64 203.325 15.2L202.965 15.26C203.125 17.42 203.205 19.62 203.205 21.86C203.245 24.1 203.265 26.3 203.265 28.46V37.76C202.825 37.88 202.145 38 201.225 38.12C200.345 38.24 199.465 38.3 198.585 38.3C197.705 38.3 196.925 38.24 196.245 38.12C195.565 38 195.005 37.76 194.565 37.4C194.125 37.04 193.785 36.56 193.545 35.96C193.305 35.32 193.185 34.5 193.185 33.5V3.5C193.745 2.7 194.605 2.1 195.765 1.7C196.925 1.3 198.165 1.1 199.485 1.1C200.965 1.1 202.365 1.34 203.685 1.82C205.045 2.26 206.125 3.3 206.925 4.94L212.925 17.06C213.525 18.3 214.065 19.48 214.545 20.6C215.025 21.68 215.545 22.94 216.105 24.38L216.405 24.32C216.245 22.16 216.145 20 216.105 17.84C216.065 15.68 216.045 13.52 216.045 11.36V1.64C216.485 1.52 217.145 1.4 218.025 1.28C218.945 1.16 219.845 1.1 220.725 1.1C222.485 1.1 223.825 1.42 224.745 2.06C225.665 2.66 226.125 3.94 226.125 5.9V36.74ZM67.6305 131.76C67.1905 131.88 66.4905 132 65.5305 132.12C64.6105 132.24 63.6905 132.3 62.7705 132.3C61.8505 132.3 61.0305 132.22 60.3105 132.06C59.6305 131.94 59.0505 131.7 58.5705 131.34C58.0905 130.98 57.7305 130.48 57.4905 129.84C57.2505 129.2 57.1305 128.36 57.1305 127.32V95.64C57.5705 95.56 58.2705 95.46 59.2305 95.34C60.1905 95.18 61.1105 95.1 61.9905 95.1C62.9105 95.1 63.7105 95.18 64.3905 95.34C65.1105 95.46 65.7105 95.7 66.1905 96.06C66.6705 96.42 67.0305 96.92 67.2705 97.56C67.5105 98.2 67.6305 99.04 67.6305 100.08V131.76ZM73.7317 104.04C73.4517 103.6 73.1917 103 72.9517 102.24C72.7117 101.48 72.5917 100.68 72.5917 99.84C72.5917 98.28 72.9317 97.16 73.6117 96.48C74.3317 95.8 75.2517 95.46 76.3717 95.46H102.532C102.812 95.9 103.072 96.5 103.312 97.26C103.552 98.02 103.672 98.82 103.672 99.66C103.672 101.22 103.312 102.34 102.592 103.02C101.912 103.7 101.012 104.04 99.8917 104.04H93.2317V131.76C92.7917 131.88 92.0917 132 91.1317 132.12C90.2117 132.24 89.2917 132.3 88.3717 132.3C87.4517 132.3 86.6317 132.22 85.9117 132.06C85.2317 131.94 84.6517 131.7 84.1717 131.34C83.6917 130.98 83.3317 130.48 83.0917 129.84C82.8517 129.2 82.7317 128.36 82.7317 127.32V104.04H73.7317ZM108.752 101.22C108.752 99.5 109.252 98.14 110.252 97.14C111.252 96.14 112.612 95.64 114.332 95.64H134.132C134.412 96.08 134.652 96.66 134.852 97.38C135.092 98.1 135.212 98.86 135.212 99.66C135.212 101.18 134.872 102.26 134.192 102.9C133.552 103.54 132.692 103.86 131.612 103.86H118.952V109.44H132.452C132.732 109.88 132.972 110.46 133.172 111.18C133.412 111.86 133.532 112.6 133.532 113.4C133.532 114.92 133.212 116 132.572 116.64C131.932 117.28 131.072 117.6 129.992 117.6H118.952V123.9H134.372C134.652 124.34 134.892 124.92 135.092 125.64C135.332 126.36 135.452 127.12 135.452 127.92C135.452 129.44 135.112 130.54 134.432 131.22C133.792 131.86 132.932 132.18 131.852 132.18H114.332C112.612 132.18 111.252 131.68 110.252 130.68C109.252 129.68 108.752 128.32 108.752 126.6V101.22ZM166.997 123.06C166.477 123.5 165.797 123.86 164.957 124.14C164.157 124.38 163.217 124.5 162.137 124.5C160.697 124.5 159.497 124.32 158.537 123.96C157.617 123.6 157.017 122.98 156.737 122.1C155.617 118.58 154.697 115.74 153.977 113.58C153.257 111.38 152.697 109.46 152.297 107.82H151.997C151.877 110.18 151.777 112.34 151.697 114.3C151.657 116.22 151.617 118.1 151.577 119.94C151.577 121.78 151.537 123.64 151.457 125.52C151.417 127.4 151.337 129.48 151.217 131.76C150.697 131.96 150.017 132.12 149.177 132.24C148.337 132.4 147.497 132.48 146.657 132.48C144.897 132.48 143.517 132.2 142.517 131.64C141.557 131.08 141.077 130.06 141.077 128.58L142.817 97.98C143.137 97.46 143.837 96.9 144.917 96.3C145.997 95.7 147.517 95.4 149.477 95.4C151.597 95.4 153.257 95.74 154.457 96.42C155.657 97.06 156.537 98.12 157.097 99.6C157.457 100.56 157.837 101.66 158.237 102.9C158.677 104.14 159.097 105.42 159.497 106.74C159.937 108.06 160.357 109.38 160.757 110.7C161.157 111.98 161.517 113.14 161.837 114.18H162.137C163.097 110.82 164.057 107.58 165.017 104.46C165.977 101.3 166.857 98.66 167.657 96.54C168.257 96.22 169.017 95.96 169.937 95.76C170.897 95.52 171.957 95.4 173.117 95.4C175.077 95.4 176.677 95.7 177.917 96.3C179.157 96.86 179.877 97.68 180.077 98.76C180.237 99.56 180.397 100.8 180.557 102.48C180.757 104.12 180.957 105.98 181.157 108.06C181.357 110.14 181.557 112.34 181.757 114.66C181.957 116.98 182.137 119.22 182.297 121.38C182.497 123.5 182.657 125.46 182.777 127.26C182.897 129.02 182.977 130.38 183.017 131.34C182.337 131.74 181.617 132.02 180.857 132.18C180.137 132.38 179.197 132.48 178.037 132.48C176.517 132.48 175.237 132.22 174.197 131.7C173.157 131.18 172.597 130.16 172.517 128.64C172.277 124.28 172.117 120.36 172.037 116.88C171.997 113.4 171.917 110.48 171.797 108.12H171.497C171.097 109.68 170.517 111.64 169.757 114C168.997 116.36 168.077 119.38 166.997 123.06Z" fill="white"/>
</svg>
