<svg width="89" height="89" viewBox="0 0 89 89" fill="none" xmlns="http://www.w3.org/2000/svg">
<path d="M78.7227 72.8841C83.2908 67.3924 86.4679 60.8822 87.9854 53.9042C89.5028 46.9262 89.3158 39.6857 87.4404 32.7952C85.5649 25.9046 82.0561 19.5667 77.2107 14.3177C72.3653 9.06872 66.326 5.06296 59.6035 2.63934C52.881 0.215711 45.6733 -0.554487 38.5899 0.393898C31.5065 1.34228 24.7559 3.98135 18.9092 8.08785C13.0625 12.1943 8.29166 17.6475 5.00026 23.9859C1.70887 30.3243 -0.0062427 37.3616 1.70736e-05 44.5024C0.00241916 54.8831 3.66354 64.9314 10.3409 72.8841L10.2773 72.9381C10.5 73.2051 10.7544 73.4339 10.9835 73.6977C11.2697 74.0251 11.5783 74.3333 11.8741 74.6512C12.7647 75.6173 13.6808 76.5454 14.6414 77.4162C14.9341 77.6832 15.2363 77.9311 15.5321 78.1854C16.5499 79.0626 17.5964 79.8952 18.6811 80.6707C18.8211 80.7661 18.9483 80.89 19.0883 80.9886V80.9504C26.5381 86.1887 35.4254 89 44.535 89C53.6446 89 62.5319 86.1887 69.9818 80.9504V80.9886C70.1217 80.89 70.2458 80.7661 70.3889 80.6707C71.4704 79.8921 72.5201 79.0626 73.5379 78.1854C73.8338 77.9311 74.1359 77.68 74.4286 77.4162C75.3892 76.5422 76.3053 75.6173 77.1959 74.6512C77.4917 74.3333 77.7971 74.0251 78.0865 73.6977C78.3124 73.4339 78.57 73.2051 78.7927 72.9349L78.7227 72.8841ZM44.5318 19.0766C47.3628 19.0766 50.1303 19.9154 52.4841 21.4869C54.838 23.0584 56.6727 25.2921 57.756 27.9055C58.8394 30.5188 59.1229 33.3945 58.5706 36.1688C58.0183 38.9431 56.655 41.4915 54.6532 43.4917C52.6514 45.4919 50.1009 46.854 47.3243 47.4059C44.5477 47.9577 41.6697 47.6745 39.0542 46.592C36.4387 45.5095 34.2032 43.6764 32.6303 41.3244C31.0575 38.9725 30.218 36.2073 30.218 33.3786C30.218 29.5855 31.7261 25.9477 34.4104 23.2655C37.0948 20.5834 40.7356 19.0766 44.5318 19.0766ZM19.1073 72.8841C19.1625 68.711 20.8598 64.7273 23.832 61.795C26.8042 58.8627 30.8124 57.2175 34.9893 57.2154H54.0744C58.2513 57.2175 62.2594 58.8627 65.2316 61.795C68.2038 64.7273 69.9011 68.711 69.9563 72.8841C62.9802 79.1653 53.9225 82.6415 44.5318 82.6415C35.1412 82.6415 26.0834 79.1653 19.1073 72.8841Z" fill="white"/>
</svg>
