<svg width="77" height="75" viewBox="0 0 77 75" fill="none" xmlns="http://www.w3.org/2000/svg">
<path d="M67.0303 25.9244C63.294 25.924 59.6518 24.7519 56.6167 22.5728C56.4469 23.0272 56.1431 23.4193 55.7455 23.6972C55.348 23.9751 54.8754 24.1256 54.3903 24.1289H22.2158C21.5808 24.1289 20.9719 23.8767 20.523 23.4277C20.074 22.9788 19.8218 22.3699 19.8218 21.735C19.8218 21.1001 20.074 20.4911 20.523 20.0422C20.9719 19.5932 21.5808 19.341 22.2158 19.341H53.1455C51.1883 16.9294 49.894 14.049 49.3902 10.9843C48.8864 7.91962 49.1906 4.7765 50.2727 1.86527C46.3814 0.747119 42.3518 0.182985 38.303 0.189509C17.1885 0.189509 0 15.2234 0 33.7047C0 52.1859 17.1885 67.2198 38.303 67.2198C42.2534 67.2152 46.1843 66.6675 49.9855 65.5919L63.2239 74.0186C63.5854 74.2505 64.0025 74.3809 64.4316 74.3961C64.8607 74.4114 65.286 74.311 65.663 74.1053C66.04 73.8997 66.3547 73.5965 66.5742 73.2274C66.7937 72.8584 66.9099 72.4371 66.9106 72.0077V55.8965C69.906 53.023 72.2963 49.5793 73.9408 45.7681C75.5853 41.957 76.4508 37.8553 76.4864 33.7047C76.4758 30.4448 75.9257 27.2091 74.8585 24.1289C72.4193 25.314 69.7422 25.928 67.0303 25.9244ZM47.2803 48.0683H29.3258C28.6908 48.0683 28.0819 47.8161 27.633 47.3671C27.184 46.9182 26.9318 46.3093 26.9318 45.6744C26.9318 45.0394 27.184 44.4305 27.633 43.9816C28.0819 43.5326 28.6908 43.2804 29.3258 43.2804H47.2803C47.9152 43.2804 48.5241 43.5326 48.9731 43.9816C49.422 44.4305 49.6742 45.0394 49.6742 45.6744C49.6742 46.3093 49.422 46.9182 48.9731 47.3671C48.5241 47.8161 47.9152 48.0683 47.2803 48.0683ZM55.0606 36.0986H21.5455C20.9105 36.0986 20.3016 35.8464 19.8527 35.3974C19.4037 34.9485 19.1515 34.3396 19.1515 33.7047C19.1515 33.0697 19.4037 32.4608 19.8527 32.0119C20.3016 31.5629 20.9105 31.3107 21.5455 31.3107H55.0606C55.6955 31.3107 56.3044 31.5629 56.7534 32.0119C57.2023 32.4608 57.4545 33.0697 57.4545 33.7047C57.4545 34.3396 57.2023 34.9485 56.7534 35.3974C56.3044 35.8464 55.6955 36.0986 55.0606 36.0986Z" fill="white"/>
</svg>
