<svg width="161" height="132" viewBox="0 0 161 132" fill="none" xmlns="http://www.w3.org/2000/svg">
<path d="M34.6917 35.8C34.1317 36.28 33.2517 36.7 32.0517 37.06C30.8917 37.42 29.6117 37.6 28.2117 37.6C26.5317 37.6 25.0917 37.36 23.8917 36.88C22.6917 36.36 21.8717 35.66 21.4317 34.78C20.9917 33.86 20.4517 32.68 19.8117 31.24C19.1717 29.76 18.4917 28.12 17.7717 26.32C17.0917 24.52 16.3717 22.62 15.6117 20.62C14.8917 18.58 14.1917 16.52 13.5117 14.44C12.8317 12.36 12.1917 10.32 11.5917 8.32C10.9917 6.32 10.4717 4.44 10.0317 2.68C10.5917 2.12 11.3917 1.62 12.4317 1.18C13.5117 0.699999 14.6517 0.459998 15.8517 0.459998C17.3317 0.459998 18.5317 0.779998 19.4517 1.42C20.4117 2.02 21.1117 3.16 21.5517 4.84C22.6317 8.76 23.7117 12.52 24.7917 16.12C25.9117 19.68 27.0717 23.4 28.2717 27.28H28.6317C29.7117 23.52 30.8117 19.42 31.9317 14.98C33.0917 10.54 34.1917 6.12 35.2317 1.72C35.9517 1.36 36.7117 1.06 37.5117 0.819997C38.3517 0.579998 39.2917 0.459998 40.3317 0.459998C41.8117 0.459998 43.0717 0.799999 44.1117 1.48C45.1517 2.12 45.6717 3.2 45.6717 4.72C45.6717 5.6 45.4517 6.88 45.0117 8.56C44.6117 10.24 44.0717 12.14 43.3917 14.26C42.7517 16.34 42.0117 18.52 41.1717 20.8C40.3717 23.08 39.5517 25.24 38.7117 27.28C37.9117 29.28 37.1517 31.06 36.4317 32.62C35.7117 34.14 35.1317 35.2 34.6917 35.8ZM61.4391 36.76C60.9991 36.88 60.2991 37 59.3391 37.12C58.4191 37.24 57.4991 37.3 56.5791 37.3C55.6591 37.3 54.8391 37.22 54.1191 37.06C53.4391 36.94 52.8591 36.7 52.3791 36.34C51.8991 35.98 51.5391 35.48 51.2991 34.84C51.0591 34.2 50.9391 33.36 50.9391 32.32V0.64C51.3791 0.559998 52.0791 0.459998 53.0391 0.34C53.9991 0.18 54.9191 0.0999994 55.7991 0.0999994C56.7191 0.0999994 57.5191 0.18 58.1991 0.34C58.9191 0.459998 59.5191 0.699998 59.9991 1.06C60.4791 1.42 60.8391 1.92 61.0791 2.56C61.3191 3.2 61.4391 4.04 61.4391 5.08V36.76ZM69.2203 6.22C69.2203 4.5 69.7203 3.14 70.7203 2.14C71.7203 1.14 73.0803 0.64 74.8003 0.64H94.6003C94.8803 1.08 95.1203 1.66 95.3203 2.38C95.5603 3.1 95.6803 3.86 95.6803 4.66C95.6803 6.18 95.3403 7.26 94.6603 7.9C94.0203 8.54 93.1603 8.86 92.0803 8.86H79.4203V14.44H92.9203C93.2003 14.88 93.4403 15.46 93.6403 16.18C93.8803 16.86 94.0003 17.6 94.0003 18.4C94.0003 19.92 93.6803 21 93.0403 21.64C92.4003 22.28 91.5403 22.6 90.4603 22.6H79.4203V28.9H94.8403C95.1203 29.34 95.3603 29.92 95.5603 30.64C95.8003 31.36 95.9203 32.12 95.9203 32.92C95.9203 34.44 95.5803 35.54 94.9003 36.22C94.2603 36.86 93.4003 37.18 92.3203 37.18H74.8003C73.0803 37.18 71.7203 36.68 70.7203 35.68C69.7203 34.68 69.2203 33.32 69.2203 31.6V6.22ZM118.891 9.52C119.331 9.32 120.011 9.1 120.931 8.86C121.891 8.58 122.851 8.44 123.811 8.44C125.491 8.44 126.891 8.7 128.011 9.22C129.131 9.7 129.811 10.42 130.051 11.38C130.491 13.02 130.891 14.56 131.251 16C131.651 17.4 132.031 18.76 132.391 20.08C132.751 21.36 133.091 22.64 133.411 23.92C133.771 25.2 134.111 26.54 134.431 27.94H134.731C135.091 25.5 135.411 23.18 135.691 20.98C135.971 18.74 136.231 16.56 136.471 14.44C136.711 12.28 136.951 10.16 137.191 8.08C137.431 5.96 137.671 3.82 137.911 1.66C139.391 0.819999 140.971 0.399999 142.651 0.399999C144.131 0.399999 145.411 0.719999 146.491 1.36C147.571 2 148.111 3.08 148.111 4.6C148.111 5.48 148.011 6.74 147.811 8.38C147.651 9.98 147.411 11.78 147.091 13.78C146.811 15.78 146.471 17.88 146.071 20.08C145.671 22.28 145.251 24.38 144.811 26.38C144.371 28.38 143.911 30.2 143.431 31.84C142.991 33.44 142.571 34.68 142.171 35.56C141.571 36.12 140.591 36.58 139.231 36.94C137.871 37.3 136.471 37.48 135.031 37.48C133.151 37.48 131.551 37.24 130.231 36.76C128.951 36.24 128.171 35.52 127.891 34.6C127.371 33 126.811 31.1 126.211 28.9C125.611 26.7 124.971 24.28 124.291 21.64C123.731 24.24 123.151 26.78 122.551 29.26C121.951 31.74 121.411 33.84 120.931 35.56C120.331 36.12 119.431 36.58 118.231 36.94C117.031 37.3 115.711 37.48 114.271 37.48C112.471 37.48 110.831 37.24 109.351 36.76C107.911 36.24 106.971 35.52 106.531 34.6C106.171 33.88 105.771 32.82 105.331 31.42C104.931 29.98 104.511 28.36 104.071 26.56C103.631 24.72 103.171 22.74 102.691 20.62C102.251 18.5 101.831 16.38 101.431 14.26C101.071 12.14 100.731 10.08 100.411 8.08C100.091 6.04 99.8514 4.18 99.6914 2.5C100.251 1.98 101.031 1.5 102.031 1.06C103.031 0.619999 104.111 0.399999 105.271 0.399999C106.791 0.399999 108.031 0.739998 108.991 1.42C109.991 2.06 110.611 3.16 110.851 4.72C111.491 8.8 112.011 12.2 112.411 14.92C112.851 17.64 113.191 19.88 113.431 21.64C113.711 23.36 113.911 24.7 114.031 25.66C114.151 26.62 114.271 27.38 114.391 27.94H114.691C115.051 26.34 115.391 24.86 115.711 23.5C116.031 22.14 116.351 20.78 116.671 19.42C117.031 18.02 117.391 16.54 117.751 14.98C118.111 13.38 118.491 11.56 118.891 9.52ZM11.107 130.76C10.667 130.88 9.96703 131 9.00703 131.12C8.08703 131.24 7.16703 131.3 6.24703 131.3C5.32703 131.3 4.50703 131.22 3.78703 131.06C3.10703 130.94 2.52703 130.7 2.04703 130.34C1.56703 129.98 1.20703 129.48 0.967031 128.84C0.727031 128.2 0.607032 127.36 0.607032 126.32V94.64C1.04703 94.56 1.74703 94.46 2.70703 94.34C3.66703 94.18 4.58703 94.1 5.46703 94.1C6.38703 94.1 7.18703 94.18 7.86703 94.34C8.58703 94.46 9.18703 94.7 9.66703 95.06C10.147 95.42 10.507 95.92 10.747 96.56C10.987 97.2 11.107 98.04 11.107 99.08V130.76ZM17.2083 103.04C16.9283 102.6 16.6683 102 16.4283 101.24C16.1883 100.48 16.0683 99.68 16.0683 98.84C16.0683 97.28 16.4083 96.16 17.0883 95.48C17.8083 94.8 18.7283 94.46 19.8483 94.46H46.0083C46.2883 94.9 46.5483 95.5 46.7883 96.26C47.0283 97.02 47.1483 97.82 47.1483 98.66C47.1483 100.22 46.7883 101.34 46.0683 102.02C45.3883 102.7 44.4883 103.04 43.3683 103.04H36.7083V130.76C36.2683 130.88 35.5683 131 34.6083 131.12C33.6883 131.24 32.7683 131.3 31.8483 131.3C30.9283 131.3 30.1083 131.22 29.3883 131.06C28.7083 130.94 28.1283 130.7 27.6483 130.34C27.1683 129.98 26.8083 129.48 26.5683 128.84C26.3283 128.2 26.2083 127.36 26.2083 126.32V103.04H17.2083ZM52.2281 100.22C52.2281 98.5 52.7281 97.14 53.7281 96.14C54.7281 95.14 56.0881 94.64 57.8081 94.64H77.6081C77.8881 95.08 78.1281 95.66 78.3281 96.38C78.5681 97.1 78.6881 97.86 78.6881 98.66C78.6881 100.18 78.3481 101.26 77.6681 101.9C77.0281 102.54 76.1681 102.86 75.0881 102.86H62.4281V108.44H75.9281C76.2081 108.88 76.4481 109.46 76.6481 110.18C76.8881 110.86 77.0081 111.6 77.0081 112.4C77.0081 113.92 76.6881 115 76.0481 115.64C75.4081 116.28 74.5481 116.6 73.4681 116.6H62.4281V122.9H77.8481C78.1281 123.34 78.3681 123.92 78.5681 124.64C78.8081 125.36 78.9281 126.12 78.9281 126.92C78.9281 128.44 78.5881 129.54 77.9081 130.22C77.2681 130.86 76.4081 131.18 75.3281 131.18H57.8081C56.0881 131.18 54.7281 130.68 53.7281 129.68C52.7281 128.68 52.2281 127.32 52.2281 125.6V100.22ZM110.474 122.06C109.954 122.5 109.274 122.86 108.434 123.14C107.634 123.38 106.694 123.5 105.614 123.5C104.174 123.5 102.974 123.32 102.014 122.96C101.094 122.6 100.494 121.98 100.214 121.1C99.0936 117.58 98.1736 114.74 97.4536 112.58C96.7336 110.38 96.1736 108.46 95.7736 106.82H95.4736C95.3536 109.18 95.2536 111.34 95.1736 113.3C95.1336 115.22 95.0936 117.1 95.0536 118.94C95.0536 120.78 95.0136 122.64 94.9336 124.52C94.8936 126.4 94.8136 128.48 94.6936 130.76C94.1736 130.96 93.4936 131.12 92.6536 131.24C91.8136 131.4 90.9736 131.48 90.1336 131.48C88.3736 131.48 86.9936 131.2 85.9936 130.64C85.0336 130.08 84.5536 129.06 84.5536 127.58L86.2936 96.98C86.6136 96.46 87.3136 95.9 88.3936 95.3C89.4736 94.7 90.9936 94.4 92.9536 94.4C95.0736 94.4 96.7336 94.74 97.9336 95.42C99.1336 96.06 100.014 97.12 100.574 98.6C100.934 99.56 101.314 100.66 101.714 101.9C102.154 103.14 102.574 104.42 102.974 105.74C103.414 107.06 103.834 108.38 104.234 109.7C104.634 110.98 104.994 112.14 105.314 113.18H105.614C106.574 109.82 107.534 106.58 108.494 103.46C109.454 100.3 110.334 97.66 111.134 95.54C111.734 95.22 112.494 94.96 113.414 94.76C114.374 94.52 115.434 94.4 116.594 94.4C118.554 94.4 120.154 94.7 121.394 95.3C122.634 95.86 123.354 96.68 123.554 97.76C123.714 98.56 123.874 99.8 124.034 101.48C124.234 103.12 124.434 104.98 124.634 107.06C124.834 109.14 125.034 111.34 125.234 113.66C125.434 115.98 125.614 118.22 125.774 120.38C125.974 122.5 126.134 124.46 126.254 126.26C126.374 128.02 126.454 129.38 126.494 130.34C125.814 130.74 125.094 131.02 124.334 131.18C123.614 131.38 122.674 131.48 121.514 131.48C119.994 131.48 118.714 131.22 117.674 130.7C116.634 130.18 116.074 129.16 115.994 127.64C115.754 123.28 115.594 119.36 115.514 115.88C115.474 112.4 115.394 109.48 115.274 107.12H114.974C114.574 108.68 113.994 110.64 113.234 113C112.474 115.36 111.554 118.38 110.474 122.06ZM143.466 116.54C141.706 115.94 140.106 115.34 138.666 114.74C137.226 114.1 135.986 113.34 134.946 112.46C133.906 111.58 133.086 110.54 132.486 109.34C131.926 108.1 131.646 106.6 131.646 104.84C131.646 101.44 132.946 98.72 135.546 96.68C138.186 94.64 141.866 93.62 146.586 93.62C148.306 93.62 149.906 93.74 151.386 93.98C152.866 94.22 154.126 94.6 155.166 95.12C156.246 95.6 157.086 96.24 157.686 97.04C158.286 97.8 158.586 98.7 158.586 99.74C158.586 100.78 158.346 101.68 157.866 102.44C157.386 103.16 156.806 103.78 156.126 104.3C155.246 103.74 154.066 103.26 152.586 102.86C151.106 102.42 149.486 102.2 147.726 102.2C145.926 102.2 144.606 102.46 143.766 102.98C142.926 103.46 142.506 104.08 142.506 104.84C142.506 105.44 142.766 105.94 143.286 106.34C143.806 106.7 144.586 107.04 145.626 107.36L148.806 108.38C152.566 109.58 155.446 111.12 157.446 113C159.486 114.84 160.506 117.36 160.506 120.56C160.506 123.96 159.166 126.72 156.486 128.84C153.806 130.92 149.866 131.96 144.666 131.96C142.826 131.96 141.106 131.8 139.506 131.48C137.946 131.2 136.566 130.78 135.366 130.22C134.206 129.62 133.286 128.9 132.606 128.06C131.966 127.18 131.646 126.18 131.646 125.06C131.646 123.9 131.986 122.92 132.666 122.12C133.346 121.28 134.086 120.64 134.886 120.2C136.006 121.08 137.366 121.84 138.966 122.48C140.606 123.12 142.386 123.44 144.306 123.44C146.266 123.44 147.646 123.14 148.446 122.54C149.246 121.94 149.646 121.24 149.646 120.44C149.646 119.64 149.326 119.04 148.686 118.64C148.046 118.2 147.146 117.78 145.986 117.38L143.466 116.54Z" fill="white"/>
</svg>
