<svg width="202" height="63" viewBox="0 0 202 63" fill="none" xmlns="http://www.w3.org/2000/svg">
<path d="M43.56 52.68C42.9733 52.84 42.04 53 40.76 53.16C39.5333 53.32 38.3067 53.4 37.08 53.4C35.8533 53.4 34.76 53.2933 33.8 53.08C32.8933 52.92 32.12 52.6 31.48 52.12C30.84 51.64 30.36 50.9733 30.04 50.12C29.72 49.2667 29.56 48.1467 29.56 46.76V34.28H14.2V52.68C13.6133 52.84 12.68 53 11.4 53.16C10.1733 53.32 8.94667 53.4 7.72 53.4C6.49333 53.4 5.4 53.2933 4.44 53.08C3.53333 52.92 2.76 52.6 2.12 52.12C1.48 51.64 1 50.9733 0.68 50.12C0.36 49.2667 0.2 48.1467 0.2 46.76V4.52C0.786667 4.41333 1.72 4.28 3 4.12C4.28 3.90667 5.50667 3.8 6.68 3.8C7.90667 3.8 8.97333 3.90667 9.88 4.12C10.84 4.28 11.64 4.6 12.28 5.08C12.92 5.56 13.4 6.22666 13.72 7.08C14.04 7.93333 14.2 9.05333 14.2 10.44V23.24H29.56V4.52C30.1467 4.41333 31.08 4.28 32.36 4.12C33.64 3.90667 34.8667 3.8 36.04 3.8C37.2667 3.8 38.3333 3.90667 39.24 4.12C40.2 4.28 41 4.6 41.64 5.08C42.28 5.56 42.76 6.22666 43.08 7.08C43.4 7.93333 43.56 9.05333 43.56 10.44V52.68ZM73.47 54.28C70.3233 54.28 67.39 53.8533 64.67 53C62.0033 52.0933 59.6567 50.76 57.63 49C55.6567 47.24 54.0833 45.0267 52.91 42.36C51.79 39.6933 51.23 36.5733 51.23 33C51.23 29.48 51.79 26.4667 52.91 23.96C54.0833 21.4 55.6033 19.32 57.47 17.72C59.3367 16.0667 61.47 14.8667 63.87 14.12C66.27 13.32 68.7233 12.92 71.23 12.92C74.0567 12.92 76.6167 13.3467 78.91 14.2C81.2567 15.0533 83.2567 16.2267 84.91 17.72C86.6167 19.2133 87.9233 21 88.83 23.08C89.79 25.16 90.27 27.4267 90.27 29.88C90.27 31.6933 89.7633 33.08 88.75 34.04C87.7367 35 86.3233 35.6133 84.51 35.88L64.75 38.84C65.3367 40.6 66.5367 41.9333 68.35 42.84C70.1633 43.6933 72.2433 44.12 74.59 44.12C76.7767 44.12 78.83 43.8533 80.75 43.32C82.7233 42.7333 84.3233 42.0667 85.55 41.32C86.4033 41.8533 87.1233 42.6 87.71 43.56C88.2967 44.52 88.59 45.5333 88.59 46.6C88.59 49 87.47 50.7867 85.23 51.96C83.5233 52.8667 81.6033 53.48 79.47 53.8C77.3367 54.12 75.3367 54.28 73.47 54.28ZM71.23 22.84C69.95 22.84 68.83 23.0533 67.87 23.48C66.9633 23.9067 66.2167 24.4667 65.63 25.16C65.0433 25.8 64.59 26.5467 64.27 27.4C64.0033 28.2 63.8433 29.0267 63.79 29.88L77.47 27.64C77.31 26.5733 76.7233 25.5067 75.71 24.44C74.6967 23.3733 73.2033 22.84 71.23 22.84ZM110.656 52.92C110.07 53.0267 109.19 53.16 108.016 53.32C106.896 53.5333 105.75 53.64 104.576 53.64C103.403 53.64 102.336 53.56 101.376 53.4C100.47 53.24 99.6963 52.92 99.0563 52.44C98.4163 51.96 97.9096 51.32 97.5363 50.52C97.2163 49.6667 97.0563 48.5733 97.0563 47.24V0.839999C97.6429 0.733331 98.4963 0.599998 99.6163 0.44C100.79 0.226666 101.963 0.119999 103.136 0.119999C104.31 0.119999 105.35 0.199998 106.256 0.359996C107.216 0.519997 108.016 0.839998 108.656 1.32C109.296 1.8 109.776 2.46666 110.096 3.32C110.47 4.12 110.656 5.18667 110.656 6.52V52.92ZM133.078 52.92C132.491 53.0267 131.611 53.16 130.438 53.32C129.318 53.5333 128.171 53.64 126.998 53.64C125.825 53.64 124.758 53.56 123.798 53.4C122.891 53.24 122.118 52.92 121.478 52.44C120.838 51.96 120.331 51.32 119.958 50.52C119.638 49.6667 119.478 48.5733 119.478 47.24V0.839999C120.065 0.733331 120.918 0.599998 122.038 0.44C123.211 0.226666 124.385 0.119999 125.558 0.119999C126.731 0.119999 127.771 0.199998 128.678 0.359996C129.638 0.519997 130.438 0.839998 131.078 1.32C131.718 1.8 132.198 2.46666 132.518 3.32C132.891 4.12 133.078 5.18667 133.078 6.52V52.92ZM181.9 33.56C181.9 36.8667 181.393 39.8267 180.38 42.44C179.367 45 177.927 47.16 176.06 48.92C174.247 50.68 172.06 52.0133 169.5 52.92C166.94 53.8267 164.087 54.28 160.94 54.28C157.793 54.28 154.94 53.8 152.38 52.84C149.82 51.88 147.607 50.52 145.74 48.76C143.927 46.9467 142.513 44.76 141.5 42.2C140.487 39.64 139.98 36.76 139.98 33.56C139.98 30.4133 140.487 27.56 141.5 25C142.513 22.44 143.927 20.28 145.74 18.52C147.607 16.7067 149.82 15.32 152.38 14.36C154.94 13.4 157.793 12.92 160.94 12.92C164.087 12.92 166.94 13.4267 169.5 14.44C172.06 15.4 174.247 16.7867 176.06 18.6C177.927 20.36 179.367 22.52 180.38 25.08C181.393 27.64 181.9 30.4667 181.9 33.56ZM153.9 33.56C153.9 36.8133 154.513 39.32 155.74 41.08C157.02 42.7867 158.78 43.64 161.02 43.64C163.26 43.64 164.967 42.76 166.14 41C167.367 39.24 167.98 36.76 167.98 33.56C167.98 30.36 167.367 27.9067 166.14 26.2C164.913 24.44 163.18 23.56 160.94 23.56C158.7 23.56 156.967 24.44 155.74 26.2C154.513 27.9067 153.9 30.36 153.9 33.56ZM195.514 58.84C194.607 60.0133 193.62 60.8667 192.554 61.4C191.54 61.9333 190.287 62.2 188.794 62.2C186.447 62.2 184.447 61.5333 182.794 60.2C183.967 56.8933 184.954 53.5067 185.754 50.04C186.554 46.52 187.22 43.3467 187.754 40.52C188.66 40.04 189.754 39.64 191.034 39.32C192.314 38.9467 193.594 38.76 194.874 38.76C196.527 38.76 197.967 39.1333 199.194 39.88C200.474 40.6267 201.114 41.96 201.114 43.88C201.114 45 200.954 46.2533 200.634 47.64C200.314 48.9733 199.887 50.3333 199.354 51.72C198.82 53.0533 198.207 54.36 197.514 55.64C196.874 56.92 196.207 57.9867 195.514 58.84Z" fill="white"/>
</svg>
